<svg width="72" height="63" viewBox="0 0 72 63" fill="none" xmlns="http://www.w3.org/2000/svg">
<path d="M15.9717 55.08C11.3637 55.08 7.66769 54.288 4.88369 52.704C2.14769 51.072 0.779688 48.816 0.779688 45.936C0.779688 44.544 1.18769 43.44 2.00369 42.624C2.86769 41.76 3.89969 41.328 5.09969 41.328C6.29969 41.328 7.33169 41.688 8.19569 42.408C9.05969 43.128 9.61169 44.424 9.85169 46.296L10.0677 47.448C10.4037 49.656 11.0517 51.24 12.0117 52.2C13.0197 53.16 14.3637 53.64 16.0437 53.64V35.856L13.8837 35.064C9.80369 33.672 6.63569 31.848 4.37969 29.592C2.17169 27.288 1.06769 24.408 1.06769 20.952C1.06769 17.112 2.38769 13.92 5.02769 11.376C7.71569 8.832 11.4117 7.464 16.1157 7.272V0.791998H17.8437V7.272C22.0677 7.368 25.3557 8.328 27.7077 10.152C30.1077 11.928 31.3077 14.04 31.3077 16.488C31.3077 17.928 30.9237 19.032 30.1557 19.8C29.4357 20.568 28.4277 20.952 27.1317 20.952C26.0277 20.952 25.0197 20.568 24.1077 19.8C23.2437 19.032 22.6197 17.592 22.2357 15.48L21.9477 13.824C21.6597 12.336 21.2277 11.232 20.6517 10.512C20.0757 9.744 19.1397 9.288 17.8437 9.144V26.064L19.1397 26.496C24.1797 28.128 27.7077 30.168 29.7237 32.616C31.7877 35.064 32.8197 37.92 32.8197 41.184C32.8197 43.728 32.1957 46.008 30.9477 48.024C29.7477 49.992 28.0197 51.6 25.7637 52.848C23.5077 54.096 20.8437 54.816 17.7717 55.008V62.28H16.0437V55.08H15.9717ZM8.69969 16.632C8.69969 18.84 9.29969 20.664 10.4997 22.104C11.7477 23.544 13.6197 24.696 16.1157 25.56V9.072C14.9637 9.168 13.8117 9.504 12.6597 10.08C11.5077 10.656 10.5477 11.496 9.77969 12.6C9.05969 13.656 8.69969 15 8.69969 16.632ZM24.8997 44.856C24.8997 42.696 24.3717 41.016 23.3157 39.816C22.2597 38.616 20.4117 37.488 17.7717 36.432V53.568C19.9797 53.232 21.7077 52.296 22.9557 50.76C24.2517 49.224 24.8997 47.256 24.8997 44.856ZM71.5 26.568C71.5 31.416 70.372 35.832 68.116 39.816C65.86 43.752 62.548 47.064 58.18 49.752C53.86 52.44 48.556 54.336 42.268 55.44L41.98 54.144C46.252 53.232 49.684 51.912 52.276 50.184C54.868 48.456 56.812 46.272 58.108 43.632C59.452 40.992 60.316 37.824 60.7 34.128C59.692 34.8 58.444 35.352 56.956 35.784C55.468 36.168 53.788 36.36 51.916 36.36C49.228 36.36 46.804 35.832 44.644 34.776C42.532 33.672 40.852 32.088 39.604 30.024C38.356 27.96 37.732 25.464 37.732 22.536C37.732 19.416 38.5 16.728 40.036 14.472C41.572 12.168 43.588 10.392 46.084 9.144C48.628 7.896 51.412 7.272 54.436 7.272C59.908 7.272 64.108 9 67.036 12.456C70.012 15.864 71.5 20.568 71.5 26.568ZM47.884 21.6C47.884 25.968 48.484 29.136 49.684 31.104C50.884 33.024 52.852 33.984 55.588 33.984C57.604 33.984 59.356 33.552 60.844 32.688C60.94 31.632 61.012 30.576 61.06 29.52C61.108 28.416 61.132 27.264 61.132 26.064C61.132 21.648 60.916 18.192 60.484 15.696C60.052 13.152 59.356 11.352 58.396 10.296C57.436 9.24 56.14 8.712 54.508 8.712C52.3 8.712 50.644 9.72 49.54 11.736C48.436 13.752 47.884 17.04 47.884 21.6Z" fill="white"/>
</svg>
