<svg width="130" height="49" viewBox="0 0 130 49" fill="none" xmlns="http://www.w3.org/2000/svg">
<path d="M17.4783 48.08C14.5983 48.08 11.8863 47.264 9.34225 45.632C6.84625 44 4.83025 41.432 3.29425 37.928C1.75825 34.424 0.99025 29.864 0.99025 24.248C0.99025 18.584 1.75825 14 3.29425 10.496C4.83025 6.944 6.84625 4.352 9.34225 2.72C11.8863 1.088 14.5983 0.271996 17.4783 0.271996C20.3583 0.271996 23.0463 1.088 25.5423 2.72C28.0863 4.352 30.1263 6.944 31.6623 10.496C33.2463 14 34.0383 18.584 34.0383 24.248C34.0383 29.864 33.2463 34.424 31.6623 37.928C30.1263 41.432 28.0863 44 25.5423 45.632C23.0463 47.264 20.3583 48.08 17.4783 48.08ZM17.4783 46.64C18.6783 46.64 19.6863 46.328 20.5023 45.704C21.3663 45.08 22.0623 43.952 22.5903 42.32C23.1183 40.688 23.5023 38.432 23.7423 35.552C23.9823 32.624 24.1023 28.856 24.1023 24.248C24.1023 19.64 23.9823 15.872 23.7423 12.944C23.5023 9.968 23.1183 7.664 22.5903 6.032C22.0623 4.4 21.3663 3.272 20.5023 2.648C19.6863 2.024 18.6783 1.712 17.4783 1.712C16.2783 1.712 15.2463 2.024 14.3823 2.648C13.5663 3.272 12.8943 4.4 12.3663 6.032C11.8383 7.616 11.4543 9.896 11.2143 12.872C10.9743 15.8 10.8543 19.592 10.8543 24.248C10.8543 28.856 10.9743 32.624 11.2143 35.552C11.4543 38.48 11.8383 40.76 12.3663 42.392C12.8943 43.976 13.5663 45.08 14.3823 45.704C15.2463 46.328 16.2783 46.64 17.4783 46.64ZM46.3469 48.08C44.6189 48.08 43.1549 47.48 41.9549 46.28C40.7549 45.08 40.1549 43.64 40.1549 41.96C40.1549 40.28 40.7549 38.816 41.9549 37.568C43.1549 36.32 44.6189 35.696 46.3469 35.696C48.0749 35.696 49.5389 36.32 50.7389 37.568C51.9389 38.816 52.5389 40.28 52.5389 41.96C52.5389 43.64 51.9389 45.08 50.7389 46.28C49.5389 47.48 48.0749 48.08 46.3469 48.08ZM75.2048 48.08C72.3248 48.08 69.6128 47.264 67.0688 45.632C64.5728 44 62.5568 41.432 61.0208 37.928C59.4848 34.424 58.7168 29.864 58.7168 24.248C58.7168 18.584 59.4848 14 61.0208 10.496C62.5568 6.944 64.5728 4.352 67.0688 2.72C69.6128 1.088 72.3248 0.271996 75.2048 0.271996C78.0848 0.271996 80.7728 1.088 83.2688 2.72C85.8128 4.352 87.8528 6.944 89.3888 10.496C90.9728 14 91.7648 18.584 91.7648 24.248C91.7648 29.864 90.9728 34.424 89.3888 37.928C87.8528 41.432 85.8128 44 83.2688 45.632C80.7728 47.264 78.0848 48.08 75.2048 48.08ZM75.2048 46.64C76.4048 46.64 77.4128 46.328 78.2288 45.704C79.0928 45.08 79.7888 43.952 80.3168 42.32C80.8448 40.688 81.2288 38.432 81.4688 35.552C81.7088 32.624 81.8288 28.856 81.8288 24.248C81.8288 19.64 81.7088 15.872 81.4688 12.944C81.2288 9.968 80.8448 7.664 80.3168 6.032C79.7888 4.4 79.0928 3.272 78.2288 2.648C77.4128 2.024 76.4048 1.712 75.2048 1.712C74.0048 1.712 72.9728 2.024 72.1088 2.648C71.2928 3.272 70.6208 4.4 70.0928 6.032C69.5648 7.616 69.1808 9.896 68.9408 12.872C68.7008 15.8 68.5808 19.592 68.5808 24.248C68.5808 28.856 68.7008 32.624 68.9408 35.552C69.1808 38.48 69.5648 40.76 70.0928 42.392C70.6208 43.976 71.2928 45.08 72.1088 45.704C72.9728 46.328 74.0048 46.64 75.2048 46.64ZM111.561 48.08C108.345 48.08 105.705 47.72 103.641 47C101.625 46.28 99.6334 45.44 97.6654 44.48L98.4574 35.12H99.1774L102.345 40.952C104.457 44.744 107.385 46.64 111.129 46.64C113.337 46.64 115.113 45.728 116.457 43.904C117.849 42.032 118.545 38.912 118.545 34.544C118.545 30.752 117.969 28.04 116.817 26.408C115.665 24.728 113.697 23.888 110.913 23.888H106.593V22.448H110.409C112.953 22.448 114.777 21.68 115.881 20.144C117.033 18.608 117.609 15.944 117.609 12.152C117.609 8.456 117.057 5.84 115.953 4.304C114.849 2.72 113.385 1.928 111.561 1.928C109.737 1.928 108.201 2.456 106.953 3.512C105.753 4.568 104.769 5.816 104.001 7.256L100.761 13.304L100.041 13.232L100.761 2.648C102.297 1.976 104.001 1.424 105.873 0.991996C107.793 0.511996 109.929 0.271996 112.281 0.271996C117.321 0.271996 121.137 1.376 123.729 3.584C126.369 5.744 127.689 8.456 127.689 11.72C127.689 14.072 126.681 16.328 124.665 18.488C122.649 20.6 119.481 22.064 115.161 22.88C120.057 23.312 123.609 24.632 125.817 26.84C128.025 29.048 129.129 31.712 129.129 34.832C129.129 37.328 128.409 39.584 126.969 41.6C125.577 43.616 123.561 45.2 120.921 46.352C118.329 47.504 115.209 48.08 111.561 48.08Z" fill="white"/>
</svg>
