<svg width="96" height="27" viewBox="0 0 96 27" fill="none" xmlns="http://www.w3.org/2000/svg">
<path d="M1.12 26V25.6L2.68 25.12C3.69333 24.7733 4.2 24.0933 4.2 23.08V3.72L0.96 4.16V3.64C2.53333 3.32 4.04 2.86666 5.48 2.28C6.94667 1.69333 8.32 1.01333 9.6 0.239998L10.12 0.599998L9.96 6.32V23.08C9.96 24.12 10.4667 24.7867 11.48 25.08L13.12 25.6V26H1.12ZM23.7444 26.6C22.1977 26.6 20.811 26.4533 19.5844 26.16C18.3844 25.8933 17.3177 25.44 16.3844 24.8L16.6644 19.76H17.0644L18.9044 23.04C19.4377 24 20.091 24.7067 20.8644 25.16C21.6377 25.5867 22.491 25.8 23.4244 25.8C26.491 25.8 28.0244 23.4667 28.0244 18.8C28.0244 16.6933 27.611 15.0933 26.7844 14C25.9844 12.9067 24.7844 12.36 23.1844 12.36C22.4377 12.36 21.691 12.4667 20.9444 12.68C20.2244 12.8667 19.5577 13.12 18.9444 13.44L18.2244 13L19.1044 0.64H33.1044V5.2H19.9044L19.3444 12.12C19.9577 11.6667 20.7844 11.24 21.8244 10.84C22.8644 10.44 23.9577 10.24 25.1044 10.24C26.8377 10.24 28.371 10.5467 29.7044 11.16C31.0644 11.7733 32.1177 12.68 32.8644 13.88C33.6377 15.0533 34.0244 16.5067 34.0244 18.24C34.0244 20.0267 33.571 21.5467 32.6644 22.8C31.7844 24.0533 30.571 25 29.0244 25.64C27.4777 26.28 25.7177 26.6 23.7444 26.6ZM45.3134 26.6C43.7134 26.6 42.2068 26.1467 40.7934 25.24C39.4068 24.3333 38.2868 22.9067 37.4334 20.96C36.5801 19.0133 36.1534 16.48 36.1534 13.36C36.1534 10.2133 36.5801 7.66667 37.4334 5.72C38.2868 3.74667 39.4068 2.30667 40.7934 1.4C42.2068 0.493332 43.7134 0.0399981 45.3134 0.0399981C46.9134 0.0399981 48.4068 0.493332 49.7934 1.4C51.2068 2.30667 52.3401 3.74667 53.1934 5.72C54.0734 7.66667 54.5134 10.2133 54.5134 13.36C54.5134 16.48 54.0734 19.0133 53.1934 20.96C52.3401 22.9067 51.2068 24.3333 49.7934 25.24C48.4068 26.1467 46.9134 26.6 45.3134 26.6ZM45.3134 25.8C45.9801 25.8 46.5401 25.6267 46.9934 25.28C47.4734 24.9333 47.8601 24.3067 48.1534 23.4C48.4468 22.4933 48.6601 21.24 48.7934 19.64C48.9268 18.0133 48.9934 15.92 48.9934 13.36C48.9934 10.8 48.9268 8.70667 48.7934 7.08C48.6601 5.42667 48.4468 4.14667 48.1534 3.24C47.8601 2.33333 47.4734 1.70666 46.9934 1.36C46.5401 1.01333 45.9801 0.84 45.3134 0.84C44.6468 0.84 44.0734 1.01333 43.5934 1.36C43.1401 1.70666 42.7668 2.33333 42.4734 3.24C42.1801 4.12 41.9668 5.38667 41.8334 7.04C41.7001 8.66667 41.6334 10.7733 41.6334 13.36C41.6334 15.92 41.7001 18.0133 41.8334 19.64C41.9668 21.2667 42.1801 22.5333 42.4734 23.44C42.7668 24.32 43.1401 24.9333 43.5934 25.28C44.0734 25.6267 44.6468 25.8 45.3134 25.8ZM65.3916 26.6C63.7916 26.6 62.2849 26.1467 60.8716 25.24C59.4849 24.3333 58.3649 22.9067 57.5116 20.96C56.6582 19.0133 56.2316 16.48 56.2316 13.36C56.2316 10.2133 56.6582 7.66667 57.5116 5.72C58.3649 3.74667 59.4849 2.30667 60.8716 1.4C62.2849 0.493332 63.7916 0.0399981 65.3916 0.0399981C66.9916 0.0399981 68.4849 0.493332 69.8716 1.4C71.2849 2.30667 72.4182 3.74667 73.2716 5.72C74.1516 7.66667 74.5916 10.2133 74.5916 13.36C74.5916 16.48 74.1516 19.0133 73.2716 20.96C72.4182 22.9067 71.2849 24.3333 69.8716 25.24C68.4849 26.1467 66.9916 26.6 65.3916 26.6ZM65.3916 25.8C66.0582 25.8 66.6182 25.6267 67.0716 25.28C67.5516 24.9333 67.9382 24.3067 68.2316 23.4C68.5249 22.4933 68.7382 21.24 68.8716 19.64C69.0049 18.0133 69.0716 15.92 69.0716 13.36C69.0716 10.8 69.0049 8.70667 68.8716 7.08C68.7382 5.42667 68.5249 4.14667 68.2316 3.24C67.9382 2.33333 67.5516 1.70666 67.0716 1.36C66.6182 1.01333 66.0582 0.84 65.3916 0.84C64.7249 0.84 64.1516 1.01333 63.6716 1.36C63.2182 1.70666 62.8449 2.33333 62.5516 3.24C62.2582 4.12 62.0449 5.38667 61.9116 7.04C61.7782 8.66667 61.7116 10.7733 61.7116 13.36C61.7116 15.92 61.7782 18.0133 61.9116 19.64C62.0449 21.2667 62.2582 22.5333 62.5516 23.44C62.8449 24.32 63.2182 24.9333 63.6716 25.28C64.1516 25.6267 64.7249 25.8 65.3916 25.8ZM85.7897 23.08V13.44H76.6297V12.64H85.7897V3.16H86.7497V12.64H95.9097V13.44H86.7497V23.08H85.7897Z" fill="black"/>
</svg>
