<svg width="83" height="27" viewBox="0 0 83 27" fill="none" xmlns="http://www.w3.org/2000/svg">
<path d="M0.76 7.36L1.04 1.68C1.84 1.22667 2.82667 0.84 4 0.519999C5.2 0.199998 6.54667 0.0399981 8.04 0.0399981C10.1733 0.0399981 11.8933 0.346665 13.2 0.959998C14.5067 1.54667 15.4667 2.36 16.08 3.4C16.6933 4.44 17 5.61333 17 6.92C17 8.76 16.1067 10.56 14.32 12.32C12.5333 14.0533 10.0933 15.9733 7 18.08C6.41333 18.5067 5.72 19.0267 4.92 19.64C4.12 20.2533 3.37333 20.8533 2.68 21.44H17.68V26H0.08V22.64C1.04 21.7067 1.97333 20.7867 2.88 19.88C3.81333 18.9467 4.69333 18.0667 5.52 17.24C7.44 15.2667 8.86667 13.52 9.8 12C10.76 10.4533 11.24 8.8 11.24 7.04C11.24 5.2 10.9067 3.72 10.24 2.6C9.57333 1.45333 8.57333 0.879999 7.24 0.879999C6.41333 0.879999 5.64 1.09333 4.92 1.52C4.22667 1.92 3.61333 2.62667 3.08 3.64L1.16 7.36H0.76ZM39.2891 10.76C39.2891 13.4533 38.6624 15.9067 37.4091 18.12C36.1557 20.3067 34.3157 22.1467 31.8891 23.64C29.4891 25.1333 26.5424 26.1867 23.0491 26.8L22.8891 26.08C25.2624 25.5733 27.1691 24.84 28.6091 23.88C30.0491 22.92 31.1291 21.7067 31.8491 20.24C32.5957 18.7733 33.0757 17.0133 33.2891 14.96C32.7291 15.3333 32.0357 15.64 31.2091 15.88C30.3824 16.0933 29.4491 16.2 28.4091 16.2C26.9157 16.2 25.5691 15.9067 24.3691 15.32C23.1957 14.7067 22.2624 13.8267 21.5691 12.68C20.8757 11.5333 20.5291 10.1467 20.5291 8.52C20.5291 6.78667 20.9557 5.29333 21.8091 4.04C22.6624 2.76 23.7824 1.77333 25.1691 1.08C26.5824 0.386665 28.1291 0.0399981 29.8091 0.0399981C32.8491 0.0399981 35.1824 0.999998 36.8091 2.92C38.4624 4.81333 39.2891 7.42667 39.2891 10.76ZM26.1691 8C26.1691 10.4267 26.5024 12.1867 27.1691 13.28C27.8357 14.3467 28.9291 14.88 30.4491 14.88C31.5691 14.88 32.5424 14.64 33.3691 14.16C33.4224 13.5733 33.4624 12.9867 33.4891 12.4C33.5157 11.7867 33.5291 11.1467 33.5291 10.48C33.5291 8.02667 33.4091 6.10667 33.1691 4.72C32.9291 3.30667 32.5424 2.30666 32.0091 1.72C31.4757 1.13333 30.7557 0.84 29.8491 0.84C28.6224 0.84 27.7024 1.4 27.0891 2.52C26.4757 3.64 26.1691 5.46667 26.1691 8ZM50.3381 26.6C48.7915 26.6 47.4048 26.4533 46.1781 26.16C44.9781 25.8933 43.9115 25.44 42.9781 24.8L43.2581 19.76H43.6581L45.4981 23.04C46.0315 24 46.6848 24.7067 47.4581 25.16C48.2315 25.5867 49.0848 25.8 50.0181 25.8C53.0848 25.8 54.6181 23.4667 54.6181 18.8C54.6181 16.6933 54.2048 15.0933 53.3781 14C52.5781 12.9067 51.3781 12.36 49.7781 12.36C49.0315 12.36 48.2848 12.4667 47.5381 12.68C46.8181 12.8667 46.1515 13.12 45.5381 13.44L44.8181 13L45.6981 0.64H59.6981V5.2H46.4981L45.9381 12.12C46.5515 11.6667 47.3781 11.24 48.4181 10.84C49.4581 10.44 50.5515 10.24 51.6981 10.24C53.4315 10.24 54.9648 10.5467 56.2981 11.16C57.6581 11.7733 58.7115 12.68 59.4581 13.88C60.2315 15.0533 60.6181 16.5067 60.6181 18.24C60.6181 20.0267 60.1648 21.5467 59.2581 22.8C58.3781 24.0533 57.1648 25 55.6181 25.64C54.0715 26.28 52.3115 26.6 50.3381 26.6ZM72.2272 23.08V13.44H63.0672V12.64H72.2272V3.16H73.1872V12.64H82.3472V13.44H73.1872V23.08H72.2272Z" fill="black"/>
</svg>
