<svg width="108" height="49" viewBox="0 0 108 49" fill="none" xmlns="http://www.w3.org/2000/svg">
<path d="M13.861 48.08C11.077 48.08 8.58097 47.816 6.37297 47.288C4.21297 46.808 2.29297 45.992 0.612969 44.84L1.11697 35.768H1.83697L5.14897 41.672C6.10897 43.4 7.28497 44.672 8.67697 45.488C10.069 46.256 11.605 46.64 13.285 46.64C18.805 46.64 21.565 42.44 21.565 34.04C21.565 30.248 20.821 27.368 19.333 25.4C17.893 23.432 15.733 22.448 12.853 22.448C11.509 22.448 10.165 22.64 8.82097 23.024C7.52497 23.36 6.32497 23.816 5.22097 24.392L3.92497 23.6L5.50897 1.352H30.709V9.56H6.94897L5.94097 22.016C7.04497 21.2 8.53297 20.432 10.405 19.712C12.277 18.992 14.245 18.632 16.309 18.632C19.429 18.632 22.189 19.184 24.589 20.288C27.037 21.392 28.933 23.024 30.277 25.184C31.669 27.296 32.365 29.912 32.365 33.032C32.365 36.248 31.549 38.984 29.917 41.24C28.333 43.496 26.149 45.2 23.365 46.352C20.581 47.504 17.413 48.08 13.861 48.08ZM52.6853 48.08C49.8053 48.08 47.0933 47.264 44.5493 45.632C42.0533 44 40.0373 41.432 38.5013 37.928C36.9653 34.424 36.1973 29.864 36.1973 24.248C36.1973 18.584 36.9653 14 38.5013 10.496C40.0373 6.944 42.0533 4.352 44.5493 2.72C47.0933 1.088 49.8053 0.271996 52.6853 0.271996C55.5653 0.271996 58.2533 1.088 60.7493 2.72C63.2933 4.352 65.3333 6.944 66.8693 10.496C68.4533 14 69.2453 18.584 69.2453 24.248C69.2453 29.864 68.4533 34.424 66.8693 37.928C65.3333 41.432 63.2933 44 60.7493 45.632C58.2533 47.264 55.5653 48.08 52.6853 48.08ZM52.6853 46.64C53.8853 46.64 54.8933 46.328 55.7093 45.704C56.5733 45.08 57.2693 43.952 57.7973 42.32C58.3253 40.688 58.7093 38.432 58.9493 35.552C59.1893 32.624 59.3093 28.856 59.3093 24.248C59.3093 19.64 59.1893 15.872 58.9493 12.944C58.7093 9.968 58.3253 7.664 57.7973 6.032C57.2693 4.4 56.5733 3.272 55.7093 2.648C54.8933 2.024 53.8853 1.712 52.6853 1.712C51.4853 1.712 50.4533 2.024 49.5893 2.648C48.7733 3.272 48.1013 4.4 47.5733 6.032C47.0453 7.616 46.6613 9.896 46.4213 12.872C46.1813 15.8 46.0613 19.592 46.0613 24.248C46.0613 28.856 46.1813 32.624 46.4213 35.552C46.6613 38.48 47.0453 40.76 47.5733 42.392C48.1013 43.976 48.7733 45.08 49.5893 45.704C50.4533 46.328 51.4853 46.64 52.6853 46.64ZM89.4019 41.744V24.392H72.9139V22.952H89.4019V5.888H91.1299V22.952H107.618V24.392H91.1299V41.744H89.4019Z" fill="white"/>
</svg>
