<svg width="249" height="40" viewBox="0 0 249 40" fill="none" xmlns="http://www.w3.org/2000/svg">
<path d="M1.184 12V0.799999H8.112V1.904H2.528V5.808H7.632V6.896H2.528V10.896H8.112V12H1.184ZM10.9513 2.304C10.6846 2.304 10.4606 2.21867 10.2793 2.048C10.1086 1.86667 10.0233 1.64267 10.0233 1.376C10.0233 1.12 10.1086 0.906666 10.2793 0.735999C10.4606 0.565333 10.6846 0.48 10.9513 0.48C11.2073 0.48 11.4259 0.565333 11.6073 0.735999C11.7886 0.906666 11.8793 1.12 11.8793 1.376C11.8793 1.64267 11.7886 1.86667 11.6073 2.048C11.4259 2.21867 11.2073 2.304 10.9513 2.304ZM10.2793 12V4.064H11.6233V12H10.2793ZM18.1978 12V4.064H19.4138L19.4938 5.488C19.7498 4.98667 20.1178 4.592 20.5978 4.304C21.0778 4.016 21.6218 3.872 22.2298 3.872C23.1684 3.872 23.9151 4.16 24.4698 4.736C25.0351 5.30133 25.3177 6.176 25.3177 7.36V12H23.9738V7.504C23.9738 5.85067 23.2911 5.024 21.9258 5.024C21.2431 5.024 20.6724 5.27467 20.2138 5.776C19.7658 6.26667 19.5418 6.97067 19.5418 7.888V12H18.1978ZM30.97 12.192C30.2233 12.192 29.5513 12.0213 28.954 11.68C28.3567 11.3387 27.882 10.8587 27.53 10.24C27.1887 9.61067 27.018 8.87467 27.018 8.032C27.018 7.18933 27.194 6.45867 27.546 5.84C27.898 5.21067 28.3727 4.72533 28.97 4.384C29.578 4.04267 30.2553 3.872 31.002 3.872C31.7487 3.872 32.4207 4.04267 33.018 4.384C33.6153 4.72533 34.0847 5.21067 34.426 5.84C34.778 6.45867 34.954 7.18933 34.954 8.032C34.954 8.87467 34.778 9.61067 34.426 10.24C34.074 10.8587 33.594 11.3387 32.986 11.68C32.3887 12.0213 31.7167 12.192 30.97 12.192ZM30.97 11.04C31.4287 11.04 31.8553 10.928 32.25 10.704C32.6447 10.48 32.9647 10.144 33.21 9.696C33.4553 9.248 33.578 8.69333 33.578 8.032C33.578 7.37067 33.4553 6.816 33.21 6.368C32.9753 5.92 32.6607 5.584 32.266 5.36C31.8713 5.136 31.45 5.024 31.002 5.024C30.5433 5.024 30.1167 5.136 29.722 5.36C29.3273 5.584 29.0073 5.92 28.762 6.368C28.5167 6.816 28.394 7.37067 28.394 8.032C28.394 8.69333 28.5167 9.248 28.762 9.696C29.0073 10.144 29.322 10.48 29.706 10.704C30.1007 10.928 30.522 11.04 30.97 11.04ZM36.8228 12V4.064H38.0388L38.1348 5.216C38.3908 4.78933 38.7321 4.45867 39.1588 4.224C39.5854 3.98933 40.0654 3.872 40.5988 3.872C41.2281 3.872 41.7668 4 42.2148 4.256C42.6734 4.512 43.0254 4.90133 43.2708 5.424C43.5481 4.944 43.9268 4.56533 44.4068 4.288C44.8974 4.01067 45.4254 3.872 45.9908 3.872C46.9401 3.872 47.6974 4.16 48.2628 4.736C48.8281 5.30133 49.1108 6.176 49.1108 7.36V12H47.7828V7.504C47.7828 6.68267 47.6174 6.064 47.2868 5.648C46.9561 5.232 46.4814 5.024 45.8628 5.024C45.2228 5.024 44.6894 5.27467 44.2628 5.776C43.8468 6.26667 43.6388 6.97067 43.6388 7.888V12H42.2948V7.504C42.2948 6.68267 42.1294 6.064 41.7988 5.648C41.4681 5.232 40.9934 5.024 40.3748 5.024C39.7454 5.024 39.2174 5.27467 38.7908 5.776C38.3748 6.26667 38.1668 6.97067 38.1668 7.888V12H36.8228ZM51.9513 2.304C51.6846 2.304 51.4606 2.21867 51.2793 2.048C51.1086 1.86667 51.0233 1.64267 51.0233 1.376C51.0233 1.12 51.1086 0.906666 51.2793 0.735999C51.4606 0.565333 51.6846 0.48 51.9513 0.48C52.2073 0.48 52.4259 0.565333 52.6073 0.735999C52.7886 0.906666 52.8793 1.12 52.8793 1.376C52.8793 1.64267 52.7886 1.86667 52.6073 2.048C52.4259 2.21867 52.2073 2.304 51.9513 2.304ZM51.2793 12V4.064H52.6233V12H51.2793ZM54.9634 12V4.064H56.1794L56.2594 5.488C56.5154 4.98667 56.8834 4.592 57.3634 4.304C57.8434 4.016 58.3874 3.872 58.9954 3.872C59.934 3.872 60.6807 4.16 61.2354 4.736C61.8007 5.30133 62.0834 6.176 62.0834 7.36V12H60.7394V7.504C60.7394 5.85067 60.0567 5.024 58.6914 5.024C58.0087 5.024 57.438 5.27467 56.9794 5.776C56.5314 6.26667 56.3074 6.97067 56.3074 7.888V12H54.9634ZM66.7596 12.192C66.0983 12.192 65.549 12.08 65.1116 11.856C64.6743 11.632 64.349 11.3333 64.1356 10.96C63.9223 10.5867 63.8156 10.1813 63.8156 9.744C63.8156 8.93333 64.125 8.30933 64.7436 7.872C65.3623 7.43467 66.205 7.216 67.2716 7.216H69.4156V7.12C69.4156 6.42667 69.2343 5.904 68.8716 5.552C68.509 5.18933 68.0236 5.008 67.4156 5.008C66.893 5.008 66.4396 5.14133 66.0556 5.408C65.6823 5.664 65.4476 6.04267 65.3516 6.544H63.9756C64.029 5.968 64.221 5.48267 64.5516 5.088C64.893 4.69333 65.3143 4.39467 65.8156 4.192C66.317 3.97867 66.8503 3.872 67.4156 3.872C68.525 3.872 69.357 4.17067 69.9116 4.768C70.477 5.35467 70.7596 6.13867 70.7596 7.12V12H69.5596L69.4796 10.576C69.2556 11.024 68.925 11.408 68.4876 11.728C68.061 12.0373 67.485 12.192 66.7596 12.192ZM66.9676 11.056C67.4796 11.056 67.917 10.9227 68.2796 10.656C68.653 10.3893 68.9356 10.0427 69.1276 9.616C69.3196 9.18933 69.4156 8.74133 69.4156 8.272V8.256H67.3836C66.5943 8.256 66.0343 8.39467 65.7036 8.672C65.3836 8.93867 65.2236 9.27467 65.2236 9.68C65.2236 10.096 65.373 10.432 65.6716 10.688C65.981 10.9333 66.413 11.056 66.9676 11.056ZM74.767 12L71.759 4.064H73.167L75.551 10.704L77.951 4.064H79.327L76.319 12H74.767ZM81.6388 2.304C81.3721 2.304 81.1481 2.21867 80.9668 2.048C80.7961 1.86667 80.7108 1.64267 80.7108 1.376C80.7108 1.12 80.7961 0.906666 80.9668 0.735999C81.1481 0.565333 81.3721 0.48 81.6388 0.48C81.8948 0.48 82.1134 0.565333 82.2948 0.735999C82.4761 0.906666 82.5668 1.12 82.5668 1.376C82.5668 1.64267 82.4761 1.86667 82.2948 2.048C82.1134 2.21867 81.8948 2.304 81.6388 2.304ZM80.9668 12V4.064H82.3108V12H80.9668ZM91.9253 12.192C90.9759 12.192 90.1866 11.952 89.5573 11.472C88.9279 10.992 88.5599 10.3413 88.4533 9.52H89.8293C89.9146 9.936 90.1333 10.2987 90.4853 10.608C90.8479 10.9067 91.3333 11.056 91.9413 11.056C92.5066 11.056 92.9226 10.9387 93.1893 10.704C93.4559 10.4587 93.5893 10.1707 93.5893 9.84C93.5893 9.36 93.4133 9.04 93.0613 8.88C92.7199 8.72 92.2346 8.576 91.6053 8.448C91.1786 8.36267 90.7519 8.24 90.3253 8.08C89.8986 7.92 89.5413 7.696 89.2533 7.408C88.9653 7.10933 88.8213 6.72 88.8213 6.24C88.8213 5.54667 89.0773 4.98133 89.5893 4.544C90.1119 4.096 90.8159 3.872 91.7013 3.872C92.5439 3.872 93.2319 4.08533 93.7653 4.512C94.3093 4.928 94.6239 5.52533 94.7093 6.304H93.3813C93.3279 5.89867 93.1519 5.584 92.8533 5.36C92.5653 5.12533 92.1759 5.008 91.6853 5.008C91.2053 5.008 90.8319 5.10933 90.5653 5.312C90.3093 5.51467 90.1813 5.78133 90.1813 6.112C90.1813 6.432 90.3466 6.68267 90.6773 6.864C91.0186 7.04533 91.4773 7.2 92.0533 7.328C92.5439 7.43467 93.0079 7.568 93.4453 7.728C93.8933 7.87733 94.2559 8.10667 94.5333 8.416C94.8213 8.71467 94.9653 9.152 94.9653 9.728C94.9759 10.4427 94.7039 11.0347 94.1493 11.504C93.6053 11.9627 92.8639 12.192 91.9253 12.192ZM103.829 4.064V12H102.613L102.533 10.576C102.277 11.0773 101.909 11.472 101.429 11.76C100.949 12.048 100.405 12.192 99.7973 12.192C98.8586 12.192 98.1066 11.9093 97.5413 11.344C96.9866 10.768 96.7093 9.888 96.7093 8.704V4.064H98.0533V8.56C98.0533 10.2133 98.7359 11.04 100.101 11.04C100.784 11.04 101.349 10.7947 101.797 10.304C102.256 9.80267 102.485 9.09333 102.485 8.176V4.064H103.829ZM108.682 12.192C108.02 12.192 107.471 12.08 107.034 11.856C106.596 11.632 106.271 11.3333 106.058 10.96C105.844 10.5867 105.738 10.1813 105.738 9.744C105.738 8.93333 106.047 8.30933 106.666 7.872C107.284 7.43467 108.127 7.216 109.194 7.216H111.338V7.12C111.338 6.42667 111.156 5.904 110.794 5.552C110.431 5.18933 109.946 5.008 109.338 5.008C108.815 5.008 108.362 5.14133 107.978 5.408C107.604 5.664 107.37 6.04267 107.274 6.544H105.898C105.951 5.968 106.143 5.48267 106.474 5.088C106.815 4.69333 107.236 4.39467 107.738 4.192C108.239 3.97867 108.772 3.872 109.338 3.872C110.447 3.872 111.279 4.17067 111.834 4.768C112.399 5.35467 112.682 6.13867 112.682 7.12V12H111.482L111.402 10.576C111.178 11.024 110.847 11.408 110.41 11.728C109.983 12.0373 109.407 12.192 108.682 12.192ZM108.89 11.056C109.402 11.056 109.839 10.9227 110.202 10.656C110.575 10.3893 110.858 10.0427 111.05 9.616C111.242 9.18933 111.338 8.74133 111.338 8.272V8.256H109.306C108.516 8.256 107.956 8.39467 107.626 8.672C107.306 8.93867 107.146 9.27467 107.146 9.68C107.146 10.096 107.295 10.432 107.594 10.688C107.903 10.9333 108.335 11.056 108.89 11.056ZM116.689 12L113.681 4.064H115.089L117.473 10.704L119.873 4.064H121.249L118.241 12H116.689ZM123.561 2.304C123.294 2.304 123.07 2.21867 122.889 2.048C122.718 1.86667 122.633 1.64267 122.633 1.376C122.633 1.12 122.718 0.906666 122.889 0.735999C123.07 0.565333 123.294 0.48 123.561 0.48C123.817 0.48 124.035 0.565333 124.217 0.735999C124.398 0.906666 124.489 1.12 124.489 1.376C124.489 1.64267 124.398 1.86667 124.217 2.048C124.035 2.21867 123.817 2.304 123.561 2.304ZM122.889 12V4.064H124.233V12H122.889ZM129.709 12C128.983 12 128.413 11.824 127.997 11.472C127.581 11.12 127.373 10.4853 127.373 9.568V5.2H125.997V4.064H127.373L127.549 2.16H128.717V4.064H131.053V5.2H128.717V9.568C128.717 10.0693 128.818 10.4107 129.021 10.592C129.223 10.7627 129.581 10.848 130.093 10.848H130.925V12H129.709ZM135.4 12.192C134.739 12.192 134.19 12.08 133.752 11.856C133.315 11.632 132.99 11.3333 132.776 10.96C132.563 10.5867 132.456 10.1813 132.456 9.744C132.456 8.93333 132.766 8.30933 133.384 7.872C134.003 7.43467 134.846 7.216 135.912 7.216H138.056V7.12C138.056 6.42667 137.875 5.904 137.512 5.552C137.15 5.18933 136.664 5.008 136.056 5.008C135.534 5.008 135.08 5.14133 134.696 5.408C134.323 5.664 134.088 6.04267 133.992 6.544H132.616C132.67 5.968 132.862 5.48267 133.192 5.088C133.534 4.69333 133.955 4.39467 134.456 4.192C134.958 3.97867 135.491 3.872 136.056 3.872C137.166 3.872 137.998 4.17067 138.552 4.768C139.118 5.35467 139.4 6.13867 139.4 7.12V12H138.2L138.12 10.576C137.896 11.024 137.566 11.408 137.128 11.728C136.702 12.0373 136.126 12.192 135.4 12.192ZM135.608 11.056C136.12 11.056 136.558 10.9227 136.92 10.656C137.294 10.3893 137.576 10.0427 137.768 9.616C137.96 9.18933 138.056 8.74133 138.056 8.272V8.256H136.024C135.235 8.256 134.675 8.39467 134.344 8.672C134.024 8.93867 133.864 9.27467 133.864 9.68C133.864 10.096 134.014 10.432 134.312 10.688C134.622 10.9333 135.054 11.056 135.608 11.056ZM144.334 12C143.608 12 143.038 11.824 142.622 11.472C142.206 11.12 141.998 10.4853 141.998 9.568V5.2H140.622V4.064H141.998L142.174 2.16H143.342V4.064H145.678V5.2H143.342V9.568C143.342 10.0693 143.443 10.4107 143.646 10.592C143.848 10.7627 144.206 10.848 144.718 10.848H145.55V12H144.334ZM150.735 12.192C149.977 12.192 149.305 12.0213 148.719 11.68C148.132 11.328 147.668 10.8427 147.327 10.224C146.996 9.60533 146.831 8.87467 146.831 8.032C146.831 7.2 146.996 6.47467 147.327 5.856C147.657 5.22667 148.116 4.74133 148.703 4.4C149.3 4.048 149.988 3.872 150.766 3.872C151.535 3.872 152.196 4.048 152.751 4.4C153.316 4.74133 153.748 5.19467 154.047 5.76C154.345 6.32533 154.495 6.93333 154.495 7.584C154.495 7.70133 154.489 7.81867 154.479 7.936C154.479 8.05333 154.479 8.18667 154.479 8.336H148.159C148.191 8.944 148.329 9.45067 148.575 9.856C148.831 10.2507 149.145 10.5493 149.519 10.752C149.903 10.9547 150.308 11.056 150.735 11.056C151.289 11.056 151.753 10.928 152.127 10.672C152.5 10.416 152.772 10.0693 152.943 9.632H154.271C154.057 10.368 153.647 10.9813 153.039 11.472C152.441 11.952 151.673 12.192 150.735 12.192ZM150.735 5.008C150.095 5.008 149.524 5.20533 149.023 5.6C148.532 5.984 148.249 6.54933 148.174 7.296H153.167C153.135 6.58133 152.889 6.02133 152.431 5.616C151.972 5.21067 151.407 5.008 150.735 5.008ZM164.11 12.192C163.321 12.192 162.628 12.0107 162.03 11.648C161.444 11.2853 160.985 10.7893 160.654 10.16C160.334 9.53067 160.174 8.816 160.174 8.016C160.174 7.216 160.34 6.50667 160.67 5.888C161.001 5.25867 161.46 4.768 162.046 4.416C162.633 4.05333 163.326 3.872 164.126 3.872C164.777 3.872 165.353 4.00533 165.854 4.272C166.356 4.53867 166.745 4.912 167.022 5.392V0.48H168.366V12H167.15L167.022 10.688C166.766 11.072 166.398 11.4187 165.918 11.728C165.438 12.0373 164.836 12.192 164.11 12.192ZM164.254 11.024C164.788 11.024 165.257 10.9013 165.662 10.656C166.078 10.4 166.398 10.048 166.622 9.6C166.857 9.152 166.974 8.62933 166.974 8.032C166.974 7.43467 166.857 6.912 166.622 6.464C166.398 6.016 166.078 5.66933 165.662 5.424C165.257 5.168 164.788 5.04 164.254 5.04C163.732 5.04 163.262 5.168 162.846 5.424C162.441 5.66933 162.121 6.016 161.886 6.464C161.662 6.912 161.55 7.43467 161.55 8.032C161.55 8.62933 161.662 9.152 161.886 9.6C162.121 10.048 162.441 10.4 162.846 10.656C163.262 10.9013 163.732 11.024 164.254 11.024ZM174.125 12.192C173.368 12.192 172.696 12.0213 172.109 11.68C171.522 11.328 171.058 10.8427 170.717 10.224C170.386 9.60533 170.221 8.87467 170.221 8.032C170.221 7.2 170.386 6.47467 170.717 5.856C171.048 5.22667 171.506 4.74133 172.093 4.4C172.69 4.048 173.378 3.872 174.157 3.872C174.925 3.872 175.586 4.048 176.141 4.4C176.706 4.74133 177.138 5.19467 177.437 5.76C177.736 6.32533 177.885 6.93333 177.885 7.584C177.885 7.70133 177.88 7.81867 177.869 7.936C177.869 8.05333 177.869 8.18667 177.869 8.336H171.549C171.581 8.944 171.72 9.45067 171.965 9.856C172.221 10.2507 172.536 10.5493 172.909 10.752C173.293 10.9547 173.698 11.056 174.125 11.056C174.68 11.056 175.144 10.928 175.517 10.672C175.89 10.416 176.162 10.0693 176.333 9.632H177.661C177.448 10.368 177.037 10.9813 176.429 11.472C175.832 11.952 175.064 12.192 174.125 12.192ZM174.125 5.008C173.485 5.008 172.914 5.20533 172.413 5.6C171.922 5.984 171.64 6.54933 171.565 7.296H176.557C176.525 6.58133 176.28 6.02133 175.821 5.616C175.362 5.21067 174.797 5.008 174.125 5.008ZM182.537 12C181.812 12 181.241 11.824 180.825 11.472C180.409 11.12 180.201 10.4853 180.201 9.568V5.2H178.825V4.064H180.201L180.377 2.16H181.545V4.064H183.881V5.2H181.545V9.568C181.545 10.0693 181.646 10.4107 181.849 10.592C182.052 10.7627 182.409 10.848 182.921 10.848H183.753V12H182.537ZM188.938 12.192C188.18 12.192 187.508 12.0213 186.922 11.68C186.335 11.328 185.871 10.8427 185.53 10.224C185.199 9.60533 185.034 8.87467 185.034 8.032C185.034 7.2 185.199 6.47467 185.53 5.856C185.86 5.22667 186.319 4.74133 186.906 4.4C187.503 4.048 188.191 3.872 188.97 3.872C189.738 3.872 190.399 4.048 190.954 4.4C191.519 4.74133 191.951 5.19467 192.25 5.76C192.548 6.32533 192.698 6.93333 192.698 7.584C192.698 7.70133 192.692 7.81867 192.682 7.936C192.682 8.05333 192.682 8.18667 192.682 8.336H186.362C186.394 8.944 186.532 9.45067 186.778 9.856C187.034 10.2507 187.348 10.5493 187.722 10.752C188.106 10.9547 188.511 11.056 188.938 11.056C189.492 11.056 189.956 10.928 190.33 10.672C190.703 10.416 190.975 10.0693 191.146 9.632H192.474C192.26 10.368 191.85 10.9813 191.242 11.472C190.644 11.952 189.876 12.192 188.938 12.192ZM188.938 5.008C188.298 5.008 187.727 5.20533 187.226 5.6C186.735 5.984 186.452 6.54933 186.378 7.296H191.37C191.338 6.58133 191.092 6.02133 190.634 5.616C190.175 5.21067 189.61 5.008 188.938 5.008ZM194.479 12V4.064H195.695L195.807 5.584C196.052 5.06133 196.426 4.64533 196.927 4.336C197.428 4.02667 198.047 3.872 198.783 3.872V5.28H198.415C197.946 5.28 197.514 5.36533 197.119 5.536C196.724 5.696 196.41 5.97333 196.175 6.368C195.94 6.76267 195.823 7.30667 195.823 8V12H194.479ZM200.292 12V4.064H201.508L201.62 5.584C201.865 5.06133 202.238 4.64533 202.74 4.336C203.241 4.02667 203.86 3.872 204.596 3.872V5.28H204.228C203.758 5.28 203.326 5.36533 202.932 5.536C202.537 5.696 202.222 5.97333 201.988 6.368C201.753 6.76267 201.636 7.30667 201.636 8V12H200.292ZM213.048 4.064V12H211.832L211.752 10.576C211.496 11.0773 211.128 11.472 210.648 11.76C210.168 12.048 209.624 12.192 209.016 12.192C208.077 12.192 207.325 11.9093 206.76 11.344C206.205 10.768 205.928 9.888 205.928 8.704V4.064H207.272V8.56C207.272 10.2133 207.955 11.04 209.32 11.04C210.003 11.04 210.568 10.7947 211.016 10.304C211.475 9.80267 211.704 9.09333 211.704 8.176V4.064H213.048ZM216.076 2.304C215.81 2.304 215.586 2.21867 215.404 2.048C215.234 1.86667 215.148 1.64267 215.148 1.376C215.148 1.12 215.234 0.906666 215.404 0.735999C215.586 0.565333 215.81 0.48 216.076 0.48C216.332 0.48 216.551 0.565333 216.732 0.735999C216.914 0.906666 217.004 1.12 217.004 1.376C217.004 1.64267 216.914 1.86667 216.732 2.048C216.551 2.21867 216.332 2.304 216.076 2.304ZM215.404 12V4.064H216.748V12H215.404ZM222.128 12.192C221.179 12.192 220.39 11.952 219.76 11.472C219.131 10.992 218.763 10.3413 218.656 9.52H220.032C220.118 9.936 220.336 10.2987 220.688 10.608C221.051 10.9067 221.536 11.056 222.144 11.056C222.71 11.056 223.126 10.9387 223.392 10.704C223.659 10.4587 223.792 10.1707 223.792 9.84C223.792 9.36 223.616 9.04 223.264 8.88C222.923 8.72 222.438 8.576 221.808 8.448C221.382 8.36267 220.955 8.24 220.528 8.08C220.102 7.92 219.744 7.696 219.456 7.408C219.168 7.10933 219.024 6.72 219.024 6.24C219.024 5.54667 219.28 4.98133 219.792 4.544C220.315 4.096 221.019 3.872 221.904 3.872C222.747 3.872 223.435 4.08533 223.968 4.512C224.512 4.928 224.827 5.52533 224.912 6.304H223.584C223.531 5.89867 223.355 5.584 223.056 5.36C222.768 5.12533 222.379 5.008 221.888 5.008C221.408 5.008 221.035 5.10933 220.768 5.312C220.512 5.51467 220.384 5.78133 220.384 6.112C220.384 6.432 220.55 6.68267 220.88 6.864C221.222 7.04533 221.68 7.2 222.256 7.328C222.747 7.43467 223.211 7.568 223.648 7.728C224.096 7.87733 224.459 8.10667 224.736 8.416C225.024 8.71467 225.168 9.152 225.168 9.728C225.179 10.4427 224.907 11.0347 224.352 11.504C223.808 11.9627 223.067 12.192 222.128 12.192ZM230.128 12.192C229.179 12.192 228.39 11.952 227.76 11.472C227.131 10.992 226.763 10.3413 226.656 9.52H228.032C228.118 9.936 228.336 10.2987 228.688 10.608C229.051 10.9067 229.536 11.056 230.144 11.056C230.71 11.056 231.126 10.9387 231.392 10.704C231.659 10.4587 231.792 10.1707 231.792 9.84C231.792 9.36 231.616 9.04 231.264 8.88C230.923 8.72 230.438 8.576 229.808 8.448C229.382 8.36267 228.955 8.24 228.528 8.08C228.102 7.92 227.744 7.696 227.456 7.408C227.168 7.10933 227.024 6.72 227.024 6.24C227.024 5.54667 227.28 4.98133 227.792 4.544C228.315 4.096 229.019 3.872 229.904 3.872C230.747 3.872 231.435 4.08533 231.968 4.512C232.512 4.928 232.827 5.52533 232.912 6.304H231.584C231.531 5.89867 231.355 5.584 231.056 5.36C230.768 5.12533 230.379 5.008 229.888 5.008C229.408 5.008 229.035 5.10933 228.768 5.312C228.512 5.51467 228.384 5.78133 228.384 6.112C228.384 6.432 228.55 6.68267 228.88 6.864C229.222 7.04533 229.68 7.2 230.256 7.328C230.747 7.43467 231.211 7.568 231.648 7.728C232.096 7.87733 232.459 8.10667 232.736 8.416C233.024 8.71467 233.168 9.152 233.168 9.728C233.179 10.4427 232.907 11.0347 232.352 11.504C231.808 11.9627 231.067 12.192 230.128 12.192ZM238.656 12.192C237.899 12.192 237.227 12.0213 236.64 11.68C236.054 11.328 235.59 10.8427 235.248 10.224C234.918 9.60533 234.752 8.87467 234.752 8.032C234.752 7.2 234.918 6.47467 235.248 5.856C235.579 5.22667 236.038 4.74133 236.624 4.4C237.222 4.048 237.91 3.872 238.688 3.872C239.456 3.872 240.118 4.048 240.672 4.4C241.238 4.74133 241.67 5.19467 241.968 5.76C242.267 6.32533 242.416 6.93333 242.416 7.584C242.416 7.70133 242.411 7.81867 242.4 7.936C242.4 8.05333 242.4 8.18667 242.4 8.336H236.08C236.112 8.944 236.251 9.45067 236.496 9.856C236.752 10.2507 237.067 10.5493 237.44 10.752C237.824 10.9547 238.23 11.056 238.656 11.056C239.211 11.056 239.675 10.928 240.048 10.672C240.422 10.416 240.694 10.0693 240.864 9.632H242.192C241.979 10.368 241.568 10.9813 240.96 11.472C240.363 11.952 239.595 12.192 238.656 12.192ZM238.656 5.008C238.016 5.008 237.446 5.20533 236.944 5.6C236.454 5.984 236.171 6.54933 236.096 7.296H241.088C241.056 6.58133 240.811 6.02133 240.352 5.616C239.894 5.21067 239.328 5.008 238.656 5.008ZM247.068 12C246.343 12 245.772 11.824 245.356 11.472C244.94 11.12 244.732 10.4853 244.732 9.568V5.2H243.356V4.064H244.732L244.908 2.16H246.076V4.064H248.412V5.2H246.076V9.568C246.076 10.0693 246.177 10.4107 246.38 10.592C246.583 10.7627 246.94 10.848 247.452 10.848H248.284V12H247.068ZM7.616 39.52V34.688C7.36 35.072 6.992 35.4187 6.512 35.728C6.032 36.0373 5.42933 36.192 4.704 36.192C3.91467 36.192 3.22133 36.0107 2.624 35.648C2.03733 35.2853 1.57867 34.7893 1.248 34.16C0.928 33.5307 0.768 32.816 0.768 32.016C0.768 31.216 0.933333 30.5067 1.264 29.888C1.59467 29.2587 2.05333 28.768 2.64 28.416C3.22667 28.0533 3.92 27.872 4.72 27.872C5.37067 27.872 5.94667 28.0053 6.448 28.272C6.94933 28.5387 7.33867 28.912 7.616 29.392L7.744 28.064H8.96V39.52H7.616ZM4.848 35.024C5.38133 35.024 5.85067 34.9013 6.256 34.656C6.672 34.4 6.992 34.048 7.216 33.6C7.45067 33.152 7.568 32.6293 7.568 32.032C7.568 31.4347 7.45067 30.912 7.216 30.464C6.992 30.016 6.672 29.6693 6.256 29.424C5.85067 29.168 5.38133 29.04 4.848 29.04C4.32533 29.04 3.856 29.168 3.44 29.424C3.03467 29.6693 2.71467 30.016 2.48 30.464C2.256 30.912 2.144 31.4347 2.144 32.032C2.144 32.6293 2.256 33.152 2.48 33.6C2.71467 34.048 3.03467 34.4 3.44 34.656C3.856 34.9013 4.32533 35.024 4.848 35.024ZM18.0949 28.064V36H16.8789L16.7989 34.576C16.5429 35.0773 16.1749 35.472 15.6949 35.76C15.2149 36.048 14.6709 36.192 14.0629 36.192C13.1242 36.192 12.3722 35.9093 11.8069 35.344C11.2522 34.768 10.9749 33.888 10.9749 32.704V28.064H12.3189V32.56C12.3189 34.2133 13.0015 35.04 14.3669 35.04C15.0495 35.04 15.6149 34.7947 16.0629 34.304C16.5215 33.8027 16.7509 33.0933 16.7509 32.176V28.064H18.0949ZM21.1231 26.304C20.8565 26.304 20.6325 26.2187 20.4511 26.048C20.2805 25.8667 20.1951 25.6427 20.1951 25.376C20.1951 25.12 20.2805 24.9067 20.4511 24.736C20.6325 24.5653 20.8565 24.48 21.1231 24.48C21.3791 24.48 21.5978 24.5653 21.7791 24.736C21.9605 24.9067 22.0511 25.12 22.0511 25.376C22.0511 25.6427 21.9605 25.8667 21.7791 26.048C21.5978 26.2187 21.3791 26.304 21.1231 26.304ZM20.4511 36V28.064H21.7951V36H20.4511ZM23.0633 37.904L23.9913 34.368H25.3832L23.9913 37.904H23.0633ZM33.8534 36.192C33.192 36.192 32.6427 36.08 32.2054 35.856C31.768 35.632 31.4427 35.3333 31.2294 34.96C31.016 34.5867 30.9094 34.1813 30.9094 33.744C30.9094 32.9333 31.2187 32.3093 31.8374 31.872C32.456 31.4347 33.2987 31.216 34.3654 31.216H36.5094V31.12C36.5094 30.4267 36.328 29.904 35.9654 29.552C35.6027 29.1893 35.1174 29.008 34.5094 29.008C33.9867 29.008 33.5334 29.1413 33.1494 29.408C32.776 29.664 32.5414 30.0427 32.4454 30.544H31.0694C31.1227 29.968 31.3147 29.4827 31.6454 29.088C31.9867 28.6933 32.408 28.3947 32.9094 28.192C33.4107 27.9787 33.944 27.872 34.5094 27.872C35.6187 27.872 36.4507 28.1707 37.0054 28.768C37.5707 29.3547 37.8534 30.1387 37.8534 31.12V36H36.6534L36.5734 34.576C36.3494 35.024 36.0187 35.408 35.5814 35.728C35.1547 36.0373 34.5787 36.192 33.8534 36.192ZM34.0614 35.056C34.5734 35.056 35.0107 34.9227 35.3734 34.656C35.7467 34.3893 36.0294 34.0427 36.2214 33.616C36.4134 33.1893 36.5094 32.7413 36.5094 32.272V32.256H34.4774C33.688 32.256 33.128 32.3947 32.7974 32.672C32.4774 32.9387 32.3174 33.2747 32.3174 33.68C32.3174 34.096 32.4667 34.432 32.7654 34.688C33.0747 34.9333 33.5067 35.056 34.0614 35.056ZM42.9096 36.192C41.9603 36.192 41.171 35.952 40.5416 35.472C39.9123 34.992 39.5443 34.3413 39.4376 33.52H40.8136C40.899 33.936 41.1176 34.2987 41.4696 34.608C41.8323 34.9067 42.3176 35.056 42.9256 35.056C43.491 35.056 43.907 34.9387 44.1736 34.704C44.4403 34.4587 44.5736 34.1707 44.5736 33.84C44.5736 33.36 44.3976 33.04 44.0456 32.88C43.7043 32.72 43.219 32.576 42.5896 32.448C42.163 32.3627 41.7363 32.24 41.3096 32.08C40.883 31.92 40.5256 31.696 40.2376 31.408C39.9496 31.1093 39.8056 30.72 39.8056 30.24C39.8056 29.5467 40.0616 28.9813 40.5736 28.544C41.0963 28.096 41.8003 27.872 42.6856 27.872C43.5283 27.872 44.2163 28.0853 44.7496 28.512C45.2936 28.928 45.6083 29.5253 45.6936 30.304H44.3656C44.3123 29.8987 44.1363 29.584 43.8376 29.36C43.5496 29.1253 43.1603 29.008 42.6696 29.008C42.1896 29.008 41.8163 29.1093 41.5496 29.312C41.2936 29.5147 41.1656 29.7813 41.1656 30.112C41.1656 30.432 41.331 30.6827 41.6616 30.864C42.003 31.0453 42.4616 31.2 43.0376 31.328C43.5283 31.4347 43.9923 31.568 44.4296 31.728C44.8776 31.8773 45.2403 32.1067 45.5176 32.416C45.8056 32.7147 45.9496 33.152 45.9496 33.728C45.9603 34.4427 45.6883 35.0347 45.1336 35.504C44.5896 35.9627 43.8483 36.192 42.9096 36.192ZM50.9096 36.192C49.9603 36.192 49.171 35.952 48.5416 35.472C47.9123 34.992 47.5443 34.3413 47.4376 33.52H48.8136C48.899 33.936 49.1176 34.2987 49.4696 34.608C49.8323 34.9067 50.3176 35.056 50.9256 35.056C51.491 35.056 51.907 34.9387 52.1736 34.704C52.4403 34.4587 52.5736 34.1707 52.5736 33.84C52.5736 33.36 52.3976 33.04 52.0456 32.88C51.7043 32.72 51.219 32.576 50.5896 32.448C50.163 32.3627 49.7363 32.24 49.3096 32.08C48.883 31.92 48.5256 31.696 48.2376 31.408C47.9496 31.1093 47.8056 30.72 47.8056 30.24C47.8056 29.5467 48.0616 28.9813 48.5736 28.544C49.0963 28.096 49.8003 27.872 50.6856 27.872C51.5283 27.872 52.2163 28.0853 52.7496 28.512C53.2936 28.928 53.6083 29.5253 53.6936 30.304H52.3656C52.3123 29.8987 52.1363 29.584 51.8376 29.36C51.5496 29.1253 51.1603 29.008 50.6696 29.008C50.1896 29.008 49.8163 29.1093 49.5496 29.312C49.2936 29.5147 49.1656 29.7813 49.1656 30.112C49.1656 30.432 49.331 30.6827 49.6616 30.864C50.003 31.0453 50.4616 31.2 51.0376 31.328C51.5283 31.4347 51.9923 31.568 52.4296 31.728C52.8776 31.8773 53.2403 32.1067 53.5176 32.416C53.8056 32.7147 53.9496 33.152 53.9496 33.728C53.9603 34.4427 53.6883 35.0347 53.1336 35.504C52.5896 35.9627 51.8483 36.192 50.9096 36.192ZM62.8136 28.064V36H61.5976L61.5176 34.576C61.2616 35.0773 60.8936 35.472 60.4136 35.76C59.9336 36.048 59.3896 36.192 58.7816 36.192C57.843 36.192 57.091 35.9093 56.5256 35.344C55.971 34.768 55.6936 33.888 55.6936 32.704V28.064H57.0376V32.56C57.0376 34.2133 57.7203 35.04 59.0856 35.04C59.7683 35.04 60.3336 34.7947 60.7816 34.304C61.2403 33.8027 61.4696 33.0933 61.4696 32.176V28.064H62.8136ZM65.0259 36V28.064H66.2419L66.3379 29.216C66.5939 28.7893 66.9352 28.4587 67.3619 28.224C67.7885 27.9893 68.2685 27.872 68.8019 27.872C69.4312 27.872 69.9699 28 70.4179 28.256C70.8765 28.512 71.2285 28.9013 71.4739 29.424C71.7512 28.944 72.1299 28.5653 72.6099 28.288C73.1005 28.0107 73.6285 27.872 74.1939 27.872C75.1432 27.872 75.9005 28.16 76.4659 28.736C77.0312 29.3013 77.3139 30.176 77.3139 31.36V36H75.9859V31.504C75.9859 30.6827 75.8205 30.064 75.4899 29.648C75.1592 29.232 74.6845 29.024 74.0659 29.024C73.4259 29.024 72.8925 29.2747 72.4659 29.776C72.0499 30.2667 71.8419 30.9707 71.8419 31.888V36H70.4979V31.504C70.4979 30.6827 70.3325 30.064 70.0019 29.648C69.6712 29.232 69.1965 29.024 68.5779 29.024C67.9485 29.024 67.4205 29.2747 66.9939 29.776C66.5779 30.2667 66.3699 30.9707 66.3699 31.888V36H65.0259ZM90.5168 28.064V36H89.3008L89.2208 34.576C88.9648 35.0773 88.5968 35.472 88.1168 35.76C87.6368 36.048 87.0928 36.192 86.4848 36.192C85.5461 36.192 84.7941 35.9093 84.2288 35.344C83.6741 34.768 83.3968 33.888 83.3968 32.704V28.064H84.7408V32.56C84.7408 34.2133 85.4234 35.04 86.7888 35.04C87.4714 35.04 88.0368 34.7947 88.4848 34.304C88.9434 33.8027 89.1728 33.0933 89.1728 32.176V28.064H90.5168ZM96.969 36.192C96.3183 36.192 95.737 36.0587 95.225 35.792C94.7237 35.5253 94.3397 35.152 94.073 34.672L93.945 36H92.729V24.48H94.073V29.376C94.329 28.992 94.6917 28.6453 95.161 28.336C95.641 28.0267 96.249 27.872 96.985 27.872C97.7743 27.872 98.4623 28.0533 99.049 28.416C99.6357 28.7787 100.089 29.2747 100.409 29.904C100.74 30.5333 100.905 31.248 100.905 32.048C100.905 32.848 100.74 33.5627 100.409 34.192C100.089 34.8107 99.6303 35.3013 99.033 35.664C98.4463 36.016 97.7583 36.192 96.969 36.192ZM96.825 35.024C97.3583 35.024 97.8277 34.9013 98.233 34.656C98.6383 34.4 98.9583 34.048 99.193 33.6C99.4277 33.152 99.545 32.6293 99.545 32.032C99.545 31.4347 99.4277 30.912 99.193 30.464C98.9583 30.016 98.6383 29.6693 98.233 29.424C97.8277 29.168 97.3583 29.04 96.825 29.04C96.2917 29.04 95.8223 29.168 95.417 29.424C95.0117 29.6693 94.6917 30.016 94.457 30.464C94.2223 30.912 94.105 31.4347 94.105 32.032C94.105 32.6293 94.2223 33.152 94.457 33.6C94.6917 34.048 95.0117 34.4 95.417 34.656C95.8223 34.9013 96.2917 35.024 96.825 35.024ZM103.592 26.304C103.325 26.304 103.101 26.2187 102.92 26.048C102.749 25.8667 102.664 25.6427 102.664 25.376C102.664 25.12 102.749 24.9067 102.92 24.736C103.101 24.5653 103.325 24.48 103.592 24.48C103.848 24.48 104.067 24.5653 104.248 24.736C104.429 24.9067 104.52 25.12 104.52 25.376C104.52 25.6427 104.429 25.8667 104.248 26.048C104.067 26.2187 103.848 26.304 103.592 26.304ZM102.92 36V28.064H104.264V36H102.92ZM113.116 39.52V34.688C112.86 35.072 112.492 35.4187 112.012 35.728C111.532 36.0373 110.929 36.192 110.204 36.192C109.415 36.192 108.721 36.0107 108.124 35.648C107.537 35.2853 107.079 34.7893 106.748 34.16C106.428 33.5307 106.268 32.816 106.268 32.016C106.268 31.216 106.433 30.5067 106.764 29.888C107.095 29.2587 107.553 28.768 108.14 28.416C108.727 28.0533 109.42 27.872 110.22 27.872C110.871 27.872 111.447 28.0053 111.948 28.272C112.449 28.5387 112.839 28.912 113.116 29.392L113.244 28.064H114.46V39.52H113.116ZM110.348 35.024C110.881 35.024 111.351 34.9013 111.756 34.656C112.172 34.4 112.492 34.048 112.716 33.6C112.951 33.152 113.068 32.6293 113.068 32.032C113.068 31.4347 112.951 30.912 112.716 30.464C112.492 30.016 112.172 29.6693 111.756 29.424C111.351 29.168 110.881 29.04 110.348 29.04C109.825 29.04 109.356 29.168 108.94 29.424C108.535 29.6693 108.215 30.016 107.98 30.464C107.756 30.912 107.644 31.4347 107.644 32.032C107.644 32.6293 107.756 33.152 107.98 33.6C108.215 34.048 108.535 34.4 108.94 34.656C109.356 34.9013 109.825 35.024 110.348 35.024ZM123.595 28.064V36H122.379L122.299 34.576C122.043 35.0773 121.675 35.472 121.195 35.76C120.715 36.048 120.171 36.192 119.563 36.192C118.624 36.192 117.872 35.9093 117.307 35.344C116.752 34.768 116.475 33.888 116.475 32.704V28.064H117.819V32.56C117.819 34.2133 118.502 35.04 119.867 35.04C120.55 35.04 121.115 34.7947 121.563 34.304C122.022 33.8027 122.251 33.0933 122.251 32.176V28.064H123.595ZM129.375 36.192C128.618 36.192 127.946 36.0213 127.359 35.68C126.772 35.328 126.308 34.8427 125.967 34.224C125.636 33.6053 125.471 32.8747 125.471 32.032C125.471 31.2 125.636 30.4747 125.967 29.856C126.298 29.2267 126.756 28.7413 127.343 28.4C127.94 28.048 128.628 27.872 129.407 27.872C130.175 27.872 130.836 28.048 131.391 28.4C131.956 28.7413 132.388 29.1947 132.687 29.76C132.986 30.3253 133.135 30.9333 133.135 31.584C133.135 31.7013 133.13 31.8187 133.119 31.936C133.119 32.0533 133.119 32.1867 133.119 32.336H126.799C126.831 32.944 126.97 33.4507 127.215 33.856C127.471 34.2507 127.786 34.5493 128.159 34.752C128.543 34.9547 128.948 35.056 129.375 35.056C129.93 35.056 130.394 34.928 130.767 34.672C131.14 34.416 131.412 34.0693 131.583 33.632H132.911C132.698 34.368 132.287 34.9813 131.679 35.472C131.082 35.952 130.314 36.192 129.375 36.192ZM129.375 29.008C128.735 29.008 128.164 29.2053 127.663 29.6C127.172 29.984 126.89 30.5493 126.815 31.296H131.807C131.775 30.5813 131.53 30.0213 131.071 29.616C130.612 29.2107 130.047 29.008 129.375 29.008ZM145.663 39.52V34.688C145.407 35.072 145.039 35.4187 144.559 35.728C144.079 36.0373 143.476 36.192 142.751 36.192C141.962 36.192 141.268 36.0107 140.671 35.648C140.084 35.2853 139.626 34.7893 139.295 34.16C138.975 33.5307 138.815 32.816 138.815 32.016C138.815 31.216 138.98 30.5067 139.311 29.888C139.642 29.2587 140.1 28.768 140.687 28.416C141.274 28.0533 141.967 27.872 142.767 27.872C143.418 27.872 143.994 28.0053 144.495 28.272C144.996 28.5387 145.386 28.912 145.663 29.392L145.791 28.064H147.007V39.52H145.663ZM142.895 35.024C143.428 35.024 143.898 34.9013 144.303 34.656C144.719 34.4 145.039 34.048 145.263 33.6C145.498 33.152 145.615 32.6293 145.615 32.032C145.615 31.4347 145.498 30.912 145.263 30.464C145.039 30.016 144.719 29.6693 144.303 29.424C143.898 29.168 143.428 29.04 142.895 29.04C142.372 29.04 141.903 29.168 141.487 29.424C141.082 29.6693 140.762 30.016 140.527 30.464C140.303 30.912 140.191 31.4347 140.191 32.032C140.191 32.6293 140.303 33.152 140.527 33.6C140.762 34.048 141.082 34.4 141.487 34.656C141.903 34.9013 142.372 35.024 142.895 35.024ZM156.142 28.064V36H154.926L154.846 34.576C154.59 35.0773 154.222 35.472 153.742 35.76C153.262 36.048 152.718 36.192 152.11 36.192C151.171 36.192 150.419 35.9093 149.854 35.344C149.299 34.768 149.022 33.888 149.022 32.704V28.064H150.366V32.56C150.366 34.2133 151.048 35.04 152.414 35.04C153.096 35.04 153.662 34.7947 154.11 34.304C154.568 33.8027 154.798 33.0933 154.798 32.176V28.064H156.142ZM161.97 36.192C161.223 36.192 160.551 36.0213 159.954 35.68C159.357 35.3387 158.882 34.8587 158.53 34.24C158.189 33.6107 158.018 32.8747 158.018 32.032C158.018 31.1893 158.194 30.4587 158.546 29.84C158.898 29.2107 159.373 28.7253 159.97 28.384C160.578 28.0427 161.255 27.872 162.002 27.872C162.749 27.872 163.421 28.0427 164.018 28.384C164.615 28.7253 165.085 29.2107 165.426 29.84C165.778 30.4587 165.954 31.1893 165.954 32.032C165.954 32.8747 165.778 33.6107 165.426 34.24C165.074 34.8587 164.594 35.3387 163.986 35.68C163.389 36.0213 162.717 36.192 161.97 36.192ZM161.97 35.04C162.429 35.04 162.855 34.928 163.25 34.704C163.645 34.48 163.965 34.144 164.21 33.696C164.455 33.248 164.578 32.6933 164.578 32.032C164.578 31.3707 164.455 30.816 164.21 30.368C163.975 29.92 163.661 29.584 163.266 29.36C162.871 29.136 162.45 29.024 162.002 29.024C161.543 29.024 161.117 29.136 160.722 29.36C160.327 29.584 160.007 29.92 159.762 30.368C159.517 30.816 159.394 31.3707 159.394 32.032C159.394 32.6933 159.517 33.248 159.762 33.696C160.007 34.144 160.322 34.48 160.706 34.704C161.101 34.928 161.522 35.04 161.97 35.04ZM171.423 36.192C170.633 36.192 169.94 36.0107 169.343 35.648C168.756 35.2853 168.297 34.7893 167.967 34.16C167.647 33.5307 167.487 32.816 167.487 32.016C167.487 31.216 167.652 30.5067 167.983 29.888C168.313 29.2587 168.772 28.768 169.359 28.416C169.945 28.0533 170.639 27.872 171.439 27.872C172.089 27.872 172.665 28.0053 173.167 28.272C173.668 28.5387 174.057 28.912 174.335 29.392V24.48H175.679V36H174.463L174.335 34.688C174.079 35.072 173.711 35.4187 173.231 35.728C172.751 36.0373 172.148 36.192 171.423 36.192ZM171.567 35.024C172.1 35.024 172.569 34.9013 172.975 34.656C173.391 34.4 173.711 34.048 173.935 33.6C174.169 33.152 174.287 32.6293 174.287 32.032C174.287 31.4347 174.169 30.912 173.935 30.464C173.711 30.016 173.391 29.6693 172.975 29.424C172.569 29.168 172.1 29.04 171.567 29.04C171.044 29.04 170.575 29.168 170.159 29.424C169.753 29.6693 169.433 30.016 169.199 30.464C168.975 30.912 168.863 31.4347 168.863 32.032C168.863 32.6293 168.975 33.152 169.199 33.6C169.433 34.048 169.753 34.4 170.159 34.656C170.575 34.9013 171.044 35.024 171.567 35.024ZM180.91 36.192C179.96 36.192 179.171 35.952 178.542 35.472C177.912 34.992 177.544 34.3413 177.438 33.52H178.814C178.899 33.936 179.118 34.2987 179.47 34.608C179.832 34.9067 180.318 35.056 180.926 35.056C181.491 35.056 181.907 34.9387 182.174 34.704C182.44 34.4587 182.574 34.1707 182.574 33.84C182.574 33.36 182.398 33.04 182.046 32.88C181.704 32.72 181.219 32.576 180.59 32.448C180.163 32.3627 179.736 32.24 179.31 32.08C178.883 31.92 178.526 31.696 178.238 31.408C177.95 31.1093 177.806 30.72 177.806 30.24C177.806 29.5467 178.062 28.9813 178.574 28.544C179.096 28.096 179.8 27.872 180.686 27.872C181.528 27.872 182.216 28.0853 182.75 28.512C183.294 28.928 183.608 29.5253 183.694 30.304H182.366C182.312 29.8987 182.136 29.584 181.838 29.36C181.55 29.1253 181.16 29.008 180.67 29.008C180.19 29.008 179.816 29.1093 179.55 29.312C179.294 29.5147 179.166 29.7813 179.166 30.112C179.166 30.432 179.331 30.6827 179.662 30.864C180.003 31.0453 180.462 31.2 181.038 31.328C181.528 31.4347 181.992 31.568 182.43 31.728C182.878 31.8773 183.24 32.1067 183.518 32.416C183.806 32.7147 183.95 33.152 183.95 33.728C183.96 34.4427 183.688 35.0347 183.134 35.504C182.59 35.9627 181.848 36.192 180.91 36.192ZM186.686 26.304C186.419 26.304 186.195 26.2187 186.014 26.048C185.843 25.8667 185.758 25.6427 185.758 25.376C185.758 25.12 185.843 24.9067 186.014 24.736C186.195 24.5653 186.419 24.48 186.686 24.48C186.942 24.48 187.16 24.5653 187.342 24.736C187.523 24.9067 187.614 25.12 187.614 25.376C187.614 25.6427 187.523 25.8667 187.342 26.048C187.16 26.2187 186.942 26.304 186.686 26.304ZM186.014 36V28.064H187.358V36H186.014ZM190.162 36.08C189.895 36.08 189.671 35.9947 189.49 35.824C189.319 35.6427 189.234 35.424 189.234 35.168C189.234 34.912 189.319 34.6987 189.49 34.528C189.671 34.3467 189.895 34.256 190.162 34.256C190.418 34.256 190.631 34.3467 190.802 34.528C190.983 34.6987 191.074 34.912 191.074 35.168C191.074 35.424 190.983 35.6427 190.802 35.824C190.631 35.9947 190.418 36.08 190.162 36.08Z" fill="black" fill-opacity="0.5"/>
</svg>
