<svg width="197" height="37" viewBox="0 0 197 37" fill="none" xmlns="http://www.w3.org/2000/svg">
<path d="M0.184 12V0.799999H1.528V12H0.184ZM7.42275 12.192C6.63342 12.192 5.94008 12.0107 5.34275 11.648C4.75608 11.2853 4.29742 10.7893 3.96675 10.16C3.64675 9.53067 3.48675 8.816 3.48675 8.016C3.48675 7.216 3.65208 6.50667 3.98275 5.888C4.31342 5.25867 4.77208 4.768 5.35875 4.416C5.94542 4.05333 6.63875 3.872 7.43875 3.872C8.08942 3.872 8.66542 4.00533 9.16675 4.272C9.66808 4.53867 10.0574 4.912 10.3348 5.392V0.48H11.6788V12H10.4628L10.3348 10.688C10.0788 11.072 9.71075 11.4187 9.23075 11.728C8.75075 12.0373 8.14808 12.192 7.42275 12.192ZM7.56675 11.024C8.10008 11.024 8.56942 10.9013 8.97475 10.656C9.39075 10.4 9.71075 10.048 9.93475 9.6C10.1694 9.152 10.2868 8.62933 10.2868 8.032C10.2868 7.43467 10.1694 6.912 9.93475 6.464C9.71075 6.016 9.39075 5.66933 8.97475 5.424C8.56942 5.168 8.10008 5.04 7.56675 5.04C7.04408 5.04 6.57475 5.168 6.15875 5.424C5.75342 5.66933 5.43342 6.016 5.19875 6.464C4.97475 6.912 4.86275 7.43467 4.86275 8.032C4.86275 8.62933 4.97475 9.152 5.19875 9.6C5.43342 10.048 5.75342 10.4 6.15875 10.656C6.57475 10.9013 7.04408 11.024 7.56675 11.024ZM24.616 15.52V10.688C24.36 11.072 23.992 11.4187 23.512 11.728C23.032 12.0373 22.4293 12.192 21.704 12.192C20.9147 12.192 20.2213 12.0107 19.624 11.648C19.0373 11.2853 18.5787 10.7893 18.248 10.16C17.928 9.53067 17.768 8.816 17.768 8.016C17.768 7.216 17.9333 6.50667 18.264 5.888C18.5947 5.25867 19.0533 4.768 19.64 4.416C20.2267 4.05333 20.92 3.872 21.72 3.872C22.3707 3.872 22.9467 4.00533 23.448 4.272C23.9493 4.53867 24.3387 4.912 24.616 5.392L24.744 4.064H25.96V15.52H24.616ZM21.848 11.024C22.3813 11.024 22.8507 10.9013 23.256 10.656C23.672 10.4 23.992 10.048 24.216 9.6C24.4507 9.152 24.568 8.62933 24.568 8.032C24.568 7.43467 24.4507 6.912 24.216 6.464C23.992 6.016 23.672 5.66933 23.256 5.424C22.8507 5.168 22.3813 5.04 21.848 5.04C21.3253 5.04 20.856 5.168 20.44 5.424C20.0347 5.66933 19.7147 6.016 19.48 6.464C19.256 6.912 19.144 7.43467 19.144 8.032C19.144 8.62933 19.256 9.152 19.48 9.6C19.7147 10.048 20.0347 10.4 20.44 10.656C20.856 10.9013 21.3253 11.024 21.848 11.024ZM35.0949 4.064V12H33.8789L33.7989 10.576C33.5429 11.0773 33.1749 11.472 32.6949 11.76C32.2149 12.048 31.6709 12.192 31.0629 12.192C30.1242 12.192 29.3722 11.9093 28.8069 11.344C28.2522 10.768 27.9749 9.888 27.9749 8.704V4.064H29.3189V8.56C29.3189 10.2133 30.0015 11.04 31.3669 11.04C32.0495 11.04 32.6149 10.7947 33.0629 10.304C33.5215 9.80267 33.7509 9.09333 33.7509 8.176V4.064H35.0949ZM38.1231 2.304C37.8565 2.304 37.6325 2.21867 37.4511 2.048C37.2805 1.86667 37.1951 1.64267 37.1951 1.376C37.1951 1.12 37.2805 0.906666 37.4511 0.735999C37.6325 0.565333 37.8565 0.48 38.1231 0.48C38.3791 0.48 38.5978 0.565333 38.7791 0.735999C38.9605 0.906666 39.0511 1.12 39.0511 1.376C39.0511 1.64267 38.9605 1.86667 38.7791 2.048C38.5978 2.21867 38.3791 2.304 38.1231 2.304ZM37.4511 12V4.064H38.7951V12H37.4511ZM45.3696 15.52V4.064H46.5856L46.7136 5.376C46.9696 4.992 47.3323 4.64533 47.8016 4.336C48.2816 4.02667 48.8896 3.872 49.6256 3.872C50.415 3.872 51.103 4.05333 51.6896 4.416C52.2763 4.77867 52.7296 5.27467 53.0496 5.904C53.3803 6.53333 53.5456 7.248 53.5456 8.048C53.5456 8.848 53.3803 9.56267 53.0496 10.192C52.7296 10.8107 52.271 11.3013 51.6736 11.664C51.087 12.016 50.399 12.192 49.6096 12.192C48.959 12.192 48.3776 12.0587 47.8656 11.792C47.3643 11.5253 46.9803 11.152 46.7136 10.672V15.52H45.3696ZM49.4656 11.024C49.999 11.024 50.4683 10.9013 50.8736 10.656C51.279 10.4 51.599 10.048 51.8336 9.6C52.0683 9.152 52.1856 8.62933 52.1856 8.032C52.1856 7.43467 52.0683 6.912 51.8336 6.464C51.599 6.016 51.279 5.66933 50.8736 5.424C50.4683 5.168 49.999 5.04 49.4656 5.04C48.9323 5.04 48.463 5.168 48.0576 5.424C47.6523 5.66933 47.3323 6.016 47.0976 6.464C46.863 6.912 46.7456 7.43467 46.7456 8.032C46.7456 8.62933 46.863 9.152 47.0976 9.6C47.3323 10.048 47.6523 10.4 48.0576 10.656C48.463 10.9013 48.9323 11.024 49.4656 11.024ZM62.3605 4.064V12H61.1445L61.0645 10.576C60.8085 11.0773 60.4405 11.472 59.9605 11.76C59.4805 12.048 58.9365 12.192 58.3285 12.192C57.3898 12.192 56.6378 11.9093 56.0725 11.344C55.5178 10.768 55.2405 9.888 55.2405 8.704V4.064H56.5845V8.56C56.5845 10.2133 57.2672 11.04 58.6325 11.04C59.3152 11.04 59.8805 10.7947 60.3285 10.304C60.7872 9.80267 61.0165 9.09333 61.0165 8.176V4.064H62.3605ZM64.5728 12V4.064H65.7888L65.9008 5.584C66.1461 5.06133 66.5194 4.64533 67.0208 4.336C67.5221 4.02667 68.1408 3.872 68.8768 3.872V5.28H68.5088C68.0394 5.28 67.6074 5.36533 67.2128 5.536C66.8181 5.696 66.5034 5.97333 66.2688 6.368C66.0341 6.76267 65.9168 7.30667 65.9168 8V12H64.5728ZM73.5213 12C72.7959 12 72.2253 11.824 71.8093 11.472C71.3933 11.12 71.1853 10.4853 71.1853 9.568V5.2H69.8092V4.064H71.1853L71.3613 2.16H72.5293V4.064H74.8653V5.2H72.5293V9.568C72.5293 10.0693 72.6306 10.4107 72.8333 10.592C73.0359 10.7627 73.3933 10.848 73.9053 10.848H74.7373V12H73.5213ZM79.97 12.192C79.2233 12.192 78.5513 12.0213 77.954 11.68C77.3567 11.3387 76.882 10.8587 76.53 10.24C76.1887 9.61067 76.018 8.87467 76.018 8.032C76.018 7.18933 76.194 6.45867 76.546 5.84C76.898 5.21067 77.3727 4.72533 77.97 4.384C78.578 4.04267 79.2553 3.872 80.002 3.872C80.7487 3.872 81.4207 4.04267 82.018 4.384C82.6153 4.72533 83.0847 5.21067 83.426 5.84C83.778 6.45867 83.954 7.18933 83.954 8.032C83.954 8.87467 83.778 9.61067 83.426 10.24C83.074 10.8587 82.594 11.3387 81.986 11.68C81.3887 12.0213 80.7167 12.192 79.97 12.192ZM79.97 11.04C80.4287 11.04 80.8553 10.928 81.25 10.704C81.6447 10.48 81.9647 10.144 82.21 9.696C82.4553 9.248 82.578 8.69333 82.578 8.032C82.578 7.37067 82.4553 6.816 82.21 6.368C81.9753 5.92 81.6607 5.584 81.266 5.36C80.8713 5.136 80.45 5.024 80.002 5.024C79.5433 5.024 79.1167 5.136 78.722 5.36C78.3273 5.584 78.0073 5.92 77.762 6.368C77.5167 6.816 77.394 7.37067 77.394 8.032C77.394 8.69333 77.5167 9.248 77.762 9.696C78.0073 10.144 78.322 10.48 78.706 10.704C79.1007 10.928 79.522 11.04 79.97 11.04ZM93.6571 12.192C92.8678 12.192 92.1745 12.0107 91.5771 11.648C90.9905 11.2853 90.5318 10.7893 90.2011 10.16C89.8811 9.53067 89.7211 8.816 89.7211 8.016C89.7211 7.216 89.8865 6.50667 90.2171 5.888C90.5478 5.25867 91.0065 4.768 91.5931 4.416C92.1798 4.05333 92.8731 3.872 93.6731 3.872C94.3238 3.872 94.8998 4.00533 95.4011 4.272C95.9025 4.53867 96.2918 4.912 96.5691 5.392V0.48H97.9131V12H96.6971L96.5691 10.688C96.3131 11.072 95.9451 11.4187 95.4651 11.728C94.9851 12.0373 94.3825 12.192 93.6571 12.192ZM93.8011 11.024C94.3345 11.024 94.8038 10.9013 95.2091 10.656C95.6251 10.4 95.9451 10.048 96.1691 9.6C96.4038 9.152 96.5211 8.62933 96.5211 8.032C96.5211 7.43467 96.4038 6.912 96.1691 6.464C95.9451 6.016 95.6251 5.66933 95.2091 5.424C94.8038 5.168 94.3345 5.04 93.8011 5.04C93.2785 5.04 92.8091 5.168 92.3931 5.424C91.9878 5.66933 91.6678 6.016 91.4331 6.464C91.2091 6.912 91.0971 7.43467 91.0971 8.032C91.0971 8.62933 91.2091 9.152 91.4331 9.6C91.6678 10.048 91.9878 10.4 92.3931 10.656C92.8091 10.9013 93.2785 11.024 93.8011 11.024ZM100.92 2.304C100.653 2.304 100.429 2.21867 100.248 2.048C100.077 1.86667 99.992 1.64267 99.992 1.376C99.992 1.12 100.077 0.906666 100.248 0.735999C100.429 0.565333 100.653 0.48 100.92 0.48C101.176 0.48 101.395 0.565333 101.576 0.735999C101.757 0.906666 101.848 1.12 101.848 1.376C101.848 1.64267 101.757 1.86667 101.576 2.048C101.395 2.21867 101.176 2.304 100.92 2.304ZM100.248 12V4.064H101.592V12H100.248ZM107.58 12.192C106.823 12.192 106.14 12.0213 105.532 11.68C104.935 11.328 104.46 10.8427 104.108 10.224C103.767 9.59467 103.596 8.864 103.596 8.032C103.596 7.2 103.767 6.47467 104.108 5.856C104.46 5.22667 104.935 4.74133 105.532 4.4C106.14 4.048 106.823 3.872 107.58 3.872C108.519 3.872 109.308 4.11733 109.948 4.608C110.599 5.09867 111.009 5.75467 111.18 6.576H109.804C109.697 6.08533 109.436 5.70667 109.02 5.44C108.604 5.16267 108.119 5.024 107.564 5.024C107.116 5.024 106.695 5.136 106.3 5.36C105.905 5.584 105.585 5.92 105.34 6.368C105.095 6.816 104.972 7.37067 104.972 8.032C104.972 8.69333 105.095 9.248 105.34 9.696C105.585 10.144 105.905 10.4853 106.3 10.72C106.695 10.944 107.116 11.056 107.564 11.056C108.119 11.056 108.604 10.9227 109.02 10.656C109.436 10.3787 109.697 9.98933 109.804 9.488H111.18C111.02 10.288 110.615 10.9387 109.964 11.44C109.313 11.9413 108.519 12.192 107.58 12.192ZM113.873 2.304C113.606 2.304 113.382 2.21867 113.201 2.048C113.03 1.86667 112.945 1.64267 112.945 1.376C112.945 1.12 113.03 0.906666 113.201 0.735999C113.382 0.565333 113.606 0.48 113.873 0.48C114.129 0.48 114.348 0.565333 114.529 0.735999C114.71 0.906666 114.801 1.12 114.801 1.376C114.801 1.64267 114.71 1.86667 114.529 2.048C114.348 2.21867 114.129 2.304 113.873 2.304ZM113.201 12V4.064H114.545V12H113.201ZM120.021 12C119.296 12 118.725 11.824 118.309 11.472C117.893 11.12 117.685 10.4853 117.685 9.568V5.2H116.309V4.064H117.685L117.861 2.16H119.029V4.064H121.365V5.2H119.029V9.568C119.029 10.0693 119.131 10.4107 119.333 10.592C119.536 10.7627 119.893 10.848 120.405 10.848H121.237V12H120.021ZM122.829 13.904L123.757 10.368H125.149L123.757 13.904H122.829ZM135.219 12.192C134.568 12.192 133.987 12.0587 133.475 11.792C132.974 11.5253 132.59 11.152 132.323 10.672L132.195 12H130.979V0.48H132.323V5.376C132.579 4.992 132.942 4.64533 133.411 4.336C133.891 4.02667 134.499 3.872 135.235 3.872C136.024 3.872 136.712 4.05333 137.299 4.416C137.886 4.77867 138.339 5.27467 138.659 5.904C138.99 6.53333 139.155 7.248 139.155 8.048C139.155 8.848 138.99 9.56267 138.659 10.192C138.339 10.8107 137.88 11.3013 137.283 11.664C136.696 12.016 136.008 12.192 135.219 12.192ZM135.075 11.024C135.608 11.024 136.078 10.9013 136.483 10.656C136.888 10.4 137.208 10.048 137.443 9.6C137.678 9.152 137.795 8.62933 137.795 8.032C137.795 7.43467 137.678 6.912 137.443 6.464C137.208 6.016 136.888 5.66933 136.483 5.424C136.078 5.168 135.608 5.04 135.075 5.04C134.542 5.04 134.072 5.168 133.667 5.424C133.262 5.66933 132.942 6.016 132.707 6.464C132.472 6.912 132.355 7.43467 132.355 8.032C132.355 8.62933 132.472 9.152 132.707 9.6C132.942 10.048 133.262 10.4 133.667 10.656C134.072 10.9013 134.542 11.024 135.075 11.024ZM144.642 12.192C143.895 12.192 143.223 12.0213 142.626 11.68C142.029 11.3387 141.554 10.8587 141.202 10.24C140.861 9.61067 140.69 8.87467 140.69 8.032C140.69 7.18933 140.866 6.45867 141.218 5.84C141.57 5.21067 142.045 4.72533 142.642 4.384C143.25 4.04267 143.927 3.872 144.674 3.872C145.421 3.872 146.093 4.04267 146.69 4.384C147.287 4.72533 147.757 5.21067 148.098 5.84C148.45 6.45867 148.626 7.18933 148.626 8.032C148.626 8.87467 148.45 9.61067 148.098 10.24C147.746 10.8587 147.266 11.3387 146.658 11.68C146.061 12.0213 145.389 12.192 144.642 12.192ZM144.642 11.04C145.101 11.04 145.527 10.928 145.922 10.704C146.317 10.48 146.637 10.144 146.882 9.696C147.127 9.248 147.25 8.69333 147.25 8.032C147.25 7.37067 147.127 6.816 146.882 6.368C146.647 5.92 146.333 5.584 145.938 5.36C145.543 5.136 145.122 5.024 144.674 5.024C144.215 5.024 143.789 5.136 143.394 5.36C142.999 5.584 142.679 5.92 142.434 6.368C142.189 6.816 142.066 7.37067 142.066 8.032C142.066 8.69333 142.189 9.248 142.434 9.696C142.679 10.144 142.994 10.48 143.378 10.704C143.773 10.928 144.194 11.04 144.642 11.04ZM150.495 12V4.064H151.711L151.791 5.488C152.047 4.98667 152.415 4.592 152.895 4.304C153.375 4.016 153.919 3.872 154.527 3.872C155.465 3.872 156.212 4.16 156.767 4.736C157.332 5.30133 157.615 6.176 157.615 7.36V12H156.271V7.504C156.271 5.85067 155.588 5.024 154.223 5.024C153.54 5.024 152.969 5.27467 152.511 5.776C152.063 6.26667 151.839 6.97067 151.839 7.888V12H150.495ZM163.267 12.192C162.52 12.192 161.848 12.0213 161.251 11.68C160.654 11.3387 160.179 10.8587 159.827 10.24C159.486 9.61067 159.315 8.87467 159.315 8.032C159.315 7.18933 159.491 6.45867 159.843 5.84C160.195 5.21067 160.67 4.72533 161.267 4.384C161.875 4.04267 162.552 3.872 163.299 3.872C164.046 3.872 164.718 4.04267 165.315 4.384C165.912 4.72533 166.382 5.21067 166.723 5.84C167.075 6.45867 167.251 7.18933 167.251 8.032C167.251 8.87467 167.075 9.61067 166.723 10.24C166.371 10.8587 165.891 11.3387 165.283 11.68C164.686 12.0213 164.014 12.192 163.267 12.192ZM163.267 11.04C163.726 11.04 164.152 10.928 164.547 10.704C164.942 10.48 165.262 10.144 165.507 9.696C165.752 9.248 165.875 8.69333 165.875 8.032C165.875 7.37067 165.752 6.816 165.507 6.368C165.272 5.92 164.958 5.584 164.563 5.36C164.168 5.136 163.747 5.024 163.299 5.024C162.84 5.024 162.414 5.136 162.019 5.36C161.624 5.584 161.304 5.92 161.059 6.368C160.814 6.816 160.691 7.37067 160.691 8.032C160.691 8.69333 160.814 9.248 161.059 9.696C161.304 10.144 161.619 10.48 162.003 10.704C162.398 10.928 162.819 11.04 163.267 11.04ZM169.12 12V4.064H170.336L170.448 5.584C170.693 5.06133 171.066 4.64533 171.568 4.336C172.069 4.02667 172.688 3.872 173.424 3.872V5.28H173.056C172.586 5.28 172.154 5.36533 171.76 5.536C171.365 5.696 171.05 5.97333 170.816 6.368C170.581 6.76267 170.464 7.30667 170.464 8V12H169.12ZM181.876 4.064V12H180.66L180.58 10.576C180.324 11.0773 179.956 11.472 179.476 11.76C178.996 12.048 178.452 12.192 177.844 12.192C176.905 12.192 176.153 11.9093 175.588 11.344C175.033 10.768 174.756 9.888 174.756 8.704V4.064H176.1V8.56C176.1 10.2133 176.783 11.04 178.148 11.04C178.831 11.04 179.396 10.7947 179.844 10.304C180.303 9.80267 180.532 9.09333 180.532 8.176V4.064H181.876ZM184.088 12V4.064H185.304L185.4 5.216C185.656 4.78933 185.998 4.45867 186.424 4.224C186.851 3.98933 187.331 3.872 187.864 3.872C188.494 3.872 189.032 4 189.48 4.256C189.939 4.512 190.291 4.90133 190.536 5.424C190.814 4.944 191.192 4.56533 191.672 4.288C192.163 4.01067 192.691 3.872 193.256 3.872C194.206 3.872 194.963 4.16 195.528 4.736C196.094 5.30133 196.376 6.176 196.376 7.36V12H195.048V7.504C195.048 6.68267 194.883 6.064 194.552 5.648C194.222 5.232 193.747 5.024 193.128 5.024C192.488 5.024 191.955 5.27467 191.528 5.776C191.112 6.26667 190.904 6.97067 190.904 7.888V12H189.56V7.504C189.56 6.68267 189.395 6.064 189.064 5.648C188.734 5.232 188.259 5.024 187.64 5.024C187.011 5.024 186.483 5.27467 186.056 5.776C185.64 6.26667 185.432 6.97067 185.432 7.888V12H184.088ZM0.104 36V28.064H1.32L1.416 29.216C1.672 28.7893 2.01333 28.4587 2.44 28.224C2.86667 27.9893 3.34667 27.872 3.88 27.872C4.50933 27.872 5.048 28 5.496 28.256C5.95467 28.512 6.30667 28.9013 6.552 29.424C6.82933 28.944 7.208 28.5653 7.688 28.288C8.17867 28.0107 8.70667 27.872 9.272 27.872C10.2213 27.872 10.9787 28.16 11.544 28.736C12.1093 29.3013 12.392 30.176 12.392 31.36V36H11.064V31.504C11.064 30.6827 10.8987 30.064 10.568 29.648C10.2373 29.232 9.76267 29.024 9.144 29.024C8.504 29.024 7.97067 29.2747 7.544 29.776C7.128 30.2667 6.92 30.9707 6.92 31.888V36H5.576V31.504C5.576 30.6827 5.41067 30.064 5.08 29.648C4.74933 29.232 4.27467 29.024 3.656 29.024C3.02667 29.024 2.49867 29.2747 2.072 29.776C1.656 30.2667 1.448 30.9707 1.448 31.888V36H0.104ZM15.2325 26.304C14.9658 26.304 14.7418 26.2187 14.5605 26.048C14.3898 25.8667 14.3045 25.6427 14.3045 25.376C14.3045 25.12 14.3898 24.9067 14.5605 24.736C14.7418 24.5653 14.9658 24.48 15.2325 24.48C15.4885 24.48 15.7072 24.5653 15.8885 24.736C16.0698 24.9067 16.1605 25.12 16.1605 25.376C16.1605 25.6427 16.0698 25.8667 15.8885 26.048C15.7072 26.2187 15.4885 26.304 15.2325 26.304ZM14.5605 36V28.064H15.9045V36H14.5605ZM18.2446 36V28.064H19.4606L19.5406 29.488C19.7966 28.9867 20.1646 28.592 20.6446 28.304C21.1246 28.016 21.6686 27.872 22.2766 27.872C23.2153 27.872 23.962 28.16 24.5166 28.736C25.082 29.3013 25.3646 30.176 25.3646 31.36V36H24.0206V31.504C24.0206 29.8507 23.338 29.024 21.9726 29.024C21.29 29.024 20.7193 29.2747 20.2606 29.776C19.8126 30.2667 19.5886 30.9707 19.5886 31.888V36H18.2446ZM28.2169 26.304C27.9502 26.304 27.7262 26.2187 27.5449 26.048C27.3742 25.8667 27.2889 25.6427 27.2889 25.376C27.2889 25.12 27.3742 24.9067 27.5449 24.736C27.7262 24.5653 27.9502 24.48 28.2169 24.48C28.4729 24.48 28.6915 24.5653 28.8729 24.736C29.0542 24.9067 29.1449 25.12 29.1449 25.376C29.1449 25.6427 29.0542 25.8667 28.8729 26.048C28.6915 26.2187 28.4729 26.304 28.2169 26.304ZM27.5449 36V28.064H28.8889V36H27.5449ZM31.229 36V28.064H32.445L32.541 29.216C32.797 28.7893 33.1383 28.4587 33.565 28.224C33.9917 27.9893 34.4717 27.872 35.005 27.872C35.6343 27.872 36.173 28 36.621 28.256C37.0797 28.512 37.4317 28.9013 37.677 29.424C37.9543 28.944 38.333 28.5653 38.813 28.288C39.3037 28.0107 39.8317 27.872 40.397 27.872C41.3463 27.872 42.1037 28.16 42.669 28.736C43.2343 29.3013 43.517 30.176 43.517 31.36V36H42.189V31.504C42.189 30.6827 42.0237 30.064 41.693 29.648C41.3623 29.232 40.8877 29.024 40.269 29.024C39.629 29.024 39.0957 29.2747 38.669 29.776C38.253 30.2667 38.045 30.9707 38.045 31.888V36H36.701V31.504C36.701 30.6827 36.5357 30.064 36.205 29.648C35.8743 29.232 35.3997 29.024 34.781 29.024C34.1517 29.024 33.6237 29.2747 33.197 29.776C32.781 30.2667 32.573 30.9707 32.573 31.888V36H31.229ZM52.4855 28.064V36H51.2695L51.1895 34.576C50.9335 35.0773 50.5655 35.472 50.0855 35.76C49.6055 36.048 49.0615 36.192 48.4535 36.192C47.5148 36.192 46.7628 35.9093 46.1975 35.344C45.6428 34.768 45.3655 33.888 45.3655 32.704V28.064H46.7095V32.56C46.7095 34.2133 47.3922 35.04 48.7575 35.04C49.4402 35.04 50.0055 34.7947 50.4535 34.304C50.9122 33.8027 51.1415 33.0933 51.1415 32.176V28.064H52.4855ZM54.6978 36V28.064H55.9138L56.0098 29.216C56.2658 28.7893 56.6071 28.4587 57.0338 28.224C57.4604 27.9893 57.9404 27.872 58.4738 27.872C59.1031 27.872 59.6418 28 60.0898 28.256C60.5484 28.512 60.9004 28.9013 61.1458 29.424C61.4231 28.944 61.8018 28.5653 62.2818 28.288C62.7724 28.0107 63.3004 27.872 63.8658 27.872C64.8151 27.872 65.5724 28.16 66.1378 28.736C66.7031 29.3013 66.9858 30.176 66.9858 31.36V36H65.6578V31.504C65.6578 30.6827 65.4924 30.064 65.1618 29.648C64.8311 29.232 64.3564 29.024 63.7378 29.024C63.0978 29.024 62.5644 29.2747 62.1378 29.776C61.7218 30.2667 61.5138 30.9707 61.5138 31.888V36H60.1698V31.504C60.1698 30.6827 60.0044 30.064 59.6738 29.648C59.3431 29.232 58.8684 29.024 58.2498 29.024C57.6204 29.024 57.0924 29.2747 56.6658 29.776C56.2498 30.2667 56.0418 30.9707 56.0418 31.888V36H54.6978ZM76.8126 36.192C76.0553 36.192 75.3833 36.0213 74.7966 35.68C74.21 35.328 73.746 34.8427 73.4046 34.224C73.074 33.6053 72.9086 32.8747 72.9086 32.032C72.9086 31.2 73.074 30.4747 73.4046 29.856C73.7353 29.2267 74.194 28.7413 74.7806 28.4C75.378 28.048 76.066 27.872 76.8446 27.872C77.6126 27.872 78.274 28.048 78.8286 28.4C79.394 28.7413 79.826 29.1947 80.1246 29.76C80.4233 30.3253 80.5726 30.9333 80.5726 31.584C80.5726 31.7013 80.5673 31.8187 80.5566 31.936C80.5566 32.0533 80.5566 32.1867 80.5566 32.336H74.2366C74.2686 32.944 74.4073 33.4507 74.6526 33.856C74.9086 34.2507 75.2233 34.5493 75.5966 34.752C75.9806 34.9547 76.386 35.056 76.8126 35.056C77.3673 35.056 77.8313 34.928 78.2046 34.672C78.578 34.416 78.85 34.0693 79.0206 33.632H80.3486C80.1353 34.368 79.7246 34.9813 79.1166 35.472C78.5193 35.952 77.7513 36.192 76.8126 36.192ZM76.8126 29.008C76.1726 29.008 75.602 29.2053 75.1006 29.6C74.61 29.984 74.3273 30.5493 74.2526 31.296H79.2446C79.2126 30.5813 78.9673 30.0213 78.5086 29.616C78.05 29.2107 77.4846 29.008 76.8126 29.008ZM85.2244 36C84.499 36 83.9284 35.824 83.5124 35.472C83.0964 35.12 82.8884 34.4853 82.8884 33.568V29.2H81.5124V28.064H82.8884L83.0644 26.16H84.2324V28.064H86.5684V29.2H84.2324V33.568C84.2324 34.0693 84.3337 34.4107 84.5364 34.592C84.739 34.7627 85.0964 34.848 85.6084 34.848H86.4404V36H85.2244ZM95.5503 36.192C94.6009 36.192 93.8116 35.952 93.1823 35.472C92.5529 34.992 92.1849 34.3413 92.0783 33.52H93.4543C93.5396 33.936 93.7583 34.2987 94.1103 34.608C94.4729 34.9067 94.9583 35.056 95.5663 35.056C96.1316 35.056 96.5476 34.9387 96.8143 34.704C97.0809 34.4587 97.2143 34.1707 97.2143 33.84C97.2143 33.36 97.0383 33.04 96.6863 32.88C96.3449 32.72 95.8596 32.576 95.2303 32.448C94.8036 32.3627 94.3769 32.24 93.9503 32.08C93.5236 31.92 93.1663 31.696 92.8783 31.408C92.5903 31.1093 92.4463 30.72 92.4463 30.24C92.4463 29.5467 92.7023 28.9813 93.2143 28.544C93.7369 28.096 94.4409 27.872 95.3263 27.872C96.1689 27.872 96.8569 28.0853 97.3903 28.512C97.9343 28.928 98.2489 29.5253 98.3343 30.304H97.0063C96.9529 29.8987 96.7769 29.584 96.4783 29.36C96.1903 29.1253 95.8009 29.008 95.3103 29.008C94.8303 29.008 94.4569 29.1093 94.1903 29.312C93.9343 29.5147 93.8063 29.7813 93.8063 30.112C93.8063 30.432 93.9716 30.6827 94.3023 30.864C94.6436 31.0453 95.1023 31.2 95.6783 31.328C96.1689 31.4347 96.6329 31.568 97.0703 31.728C97.5183 31.8773 97.8809 32.1067 98.1583 32.416C98.4463 32.7147 98.5903 33.152 98.5903 33.728C98.6009 34.4427 98.3289 35.0347 97.7743 35.504C97.2303 35.9627 96.4889 36.192 95.5503 36.192ZM101.326 26.304C101.06 26.304 100.836 26.2187 100.654 26.048C100.484 25.8667 100.398 25.6427 100.398 25.376C100.398 25.12 100.484 24.9067 100.654 24.736C100.836 24.5653 101.06 24.48 101.326 24.48C101.582 24.48 101.801 24.5653 101.982 24.736C102.164 24.9067 102.254 25.12 102.254 25.376C102.254 25.6427 102.164 25.8667 101.982 26.048C101.801 26.2187 101.582 26.304 101.326 26.304ZM100.654 36V28.064H101.998V36H100.654ZM107.474 36C106.749 36 106.178 35.824 105.762 35.472C105.346 35.12 105.138 34.4853 105.138 33.568V29.2H103.762V28.064H105.138L105.314 26.16H106.482V28.064H108.818V29.2H106.482V33.568C106.482 34.0693 106.584 34.4107 106.786 34.592C106.989 34.7627 107.346 34.848 107.858 34.848H108.69V36H107.474ZM110.99 36.08C110.723 36.08 110.499 35.9947 110.318 35.824C110.147 35.6427 110.062 35.424 110.062 35.168C110.062 34.912 110.147 34.6987 110.318 34.528C110.499 34.3467 110.723 34.256 110.99 34.256C111.246 34.256 111.459 34.3467 111.63 34.528C111.811 34.6987 111.902 34.912 111.902 35.168C111.902 35.424 111.811 35.6427 111.63 35.824C111.459 35.9947 111.246 36.08 110.99 36.08Z" fill="black" fill-opacity="0.5"/>
</svg>
