<svg width="120" height="16" viewBox="0 0 120 16" fill="none" xmlns="http://www.w3.org/2000/svg">
<path d="M0.0880001 12V0.799999H2.136L7.4 8.688V0.799999H9.448V12H7.4L2.136 4.128V12H0.0880001ZM14.3073 12.192C13.6246 12.192 13.0646 12.0853 12.6273 11.872C12.1899 11.648 11.8646 11.3547 11.6513 10.992C11.4379 10.6293 11.3313 10.2293 11.3313 9.792C11.3313 9.056 11.6193 8.45867 12.1953 8C12.7713 7.54133 13.6353 7.312 14.7873 7.312H16.8033V7.12C16.8033 6.576 16.6486 6.176 16.3393 5.92C16.0299 5.664 15.6459 5.536 15.1873 5.536C14.7713 5.536 14.4086 5.63733 14.0993 5.84C13.7899 6.032 13.5979 6.32 13.5233 6.704H11.5233C11.5766 6.128 11.7686 5.62667 12.0993 5.2C12.4406 4.77333 12.8779 4.448 13.4113 4.224C13.9446 3.98933 14.5419 3.872 15.2033 3.872C16.3339 3.872 17.2246 4.15467 17.8753 4.72C18.5259 5.28533 18.8513 6.08533 18.8513 7.12V12H17.1073L16.9153 10.72C16.6806 11.1467 16.3499 11.4987 15.9233 11.776C15.5073 12.0533 14.9686 12.192 14.3073 12.192ZM14.7713 10.592C15.3579 10.592 15.8113 10.4 16.1313 10.016C16.4619 9.632 16.6699 9.15733 16.7553 8.592H15.0113C14.4673 8.592 14.0779 8.69333 13.8433 8.896C13.6086 9.088 13.4913 9.328 13.4913 9.616C13.4913 9.92533 13.6086 10.1653 13.8433 10.336C14.0779 10.5067 14.3873 10.592 14.7713 10.592ZM24.2323 12C23.4003 12 22.7336 11.7973 22.2323 11.392C21.7309 10.9867 21.4803 10.2667 21.4803 9.232V5.776H20.1203V4.064H21.4803L21.7203 1.936H23.5283V4.064H25.6723V5.776H23.5283V9.248C23.5283 9.632 23.6083 9.89867 23.7682 10.048C23.9389 10.1867 24.2269 10.256 24.6323 10.256H25.6243V12H24.2323ZM35.0786 4.064V12H33.2706L33.1106 10.656C32.8653 11.1253 32.508 11.4987 32.0386 11.776C31.58 12.0533 31.036 12.192 30.4066 12.192C29.4253 12.192 28.6626 11.8827 28.1186 11.264C27.5746 10.6453 27.3026 9.73867 27.3026 8.544V4.064H29.3506V8.352C29.3506 9.03467 29.4893 9.55733 29.7666 9.92C30.044 10.2827 30.476 10.464 31.0626 10.464C31.6386 10.464 32.108 10.2613 32.4706 9.856C32.844 9.45067 33.0306 8.88533 33.0306 8.16V4.064H35.0786ZM37.165 12V4.064H38.973L39.149 5.136C39.405 4.752 39.741 4.448 40.157 4.224C40.5837 3.98933 41.0743 3.872 41.629 3.872C42.8557 3.872 43.725 4.34667 44.237 5.296C44.525 4.85867 44.909 4.512 45.389 4.256C45.8797 4 46.413 3.872 46.989 3.872C48.0237 3.872 48.8183 4.18133 49.373 4.8C49.9277 5.41867 50.205 6.32533 50.205 7.52V12H48.157V7.712C48.157 7.02933 48.0237 6.50667 47.757 6.144C47.501 5.78133 47.101 5.6 46.557 5.6C46.0023 5.6 45.5543 5.80267 45.213 6.208C44.8823 6.61333 44.717 7.17867 44.717 7.904V12H42.669V7.712C42.669 7.02933 42.5357 6.50667 42.269 6.144C42.0023 5.78133 41.5917 5.6 41.037 5.6C40.493 5.6 40.0503 5.80267 39.709 6.208C39.3783 6.61333 39.213 7.17867 39.213 7.904V12H37.165ZM58.1059 12L55.1939 4.064H57.3379L59.3539 10.064L61.3699 4.064H63.5139L60.5859 12H58.1059ZM68.223 12.192C67.455 12.192 66.7617 12.016 66.143 11.664C65.535 11.312 65.0497 10.8267 64.687 10.208C64.335 9.57867 64.159 8.85333 64.159 8.032C64.159 7.21067 64.3403 6.49067 64.703 5.872C65.0657 5.24267 65.551 4.752 66.159 4.4C66.7777 4.048 67.471 3.872 68.239 3.872C68.9963 3.872 69.679 4.048 70.287 4.4C70.9057 4.752 71.391 5.24267 71.743 5.872C72.1057 6.49067 72.287 7.21067 72.287 8.032C72.287 8.85333 72.1057 9.57867 71.743 10.208C71.391 10.8267 70.9057 11.312 70.287 11.664C69.6683 12.016 68.9803 12.192 68.223 12.192ZM68.223 10.416C68.7563 10.416 69.2203 10.2187 69.615 9.824C70.0097 9.41867 70.207 8.82133 70.207 8.032C70.207 7.24267 70.0097 6.65067 69.615 6.256C69.2203 5.85067 68.7617 5.648 68.239 5.648C67.695 5.648 67.2257 5.85067 66.831 6.256C66.447 6.65067 66.255 7.24267 66.255 8.032C66.255 8.82133 66.447 9.41867 66.831 9.824C67.2257 10.2187 67.6897 10.416 68.223 10.416ZM74.1181 12V0.48H76.1661V12H74.1181ZM85.9068 4.064V12H84.0988L83.9388 10.656C83.6934 11.1253 83.3361 11.4987 82.8668 11.776C82.4081 12.0533 81.8641 12.192 81.2348 12.192C80.2534 12.192 79.4908 11.8827 78.9468 11.264C78.4028 10.6453 78.1308 9.73867 78.1308 8.544V4.064H80.1788V8.352C80.1788 9.03467 80.3174 9.55733 80.5948 9.92C80.8721 10.2827 81.3041 10.464 81.8908 10.464C82.4668 10.464 82.9361 10.2613 83.2988 9.856C83.6721 9.45067 83.8588 8.88533 83.8588 8.16V4.064H85.9068ZM91.5291 12C90.6971 12 90.0305 11.7973 89.5291 11.392C89.0278 10.9867 88.7771 10.2667 88.7771 9.232V5.776H87.4171V4.064H88.7771L89.0171 1.936H90.8251V4.064H92.9691V5.776H90.8251V9.248C90.8251 9.632 90.9051 9.89867 91.0651 10.048C91.2358 10.1867 91.5238 10.256 91.9291 10.256H92.9211V12H91.5291ZM94.7275 15.52V4.064H96.5515L96.7755 5.2C97.0315 4.848 97.3675 4.53867 97.7835 4.272C98.2102 4.00533 98.7595 3.872 99.4315 3.872C100.178 3.872 100.845 4.05333 101.432 4.416C102.018 4.77867 102.482 5.27467 102.824 5.904C103.165 6.53333 103.336 7.248 103.336 8.048C103.336 8.848 103.165 9.56267 102.824 10.192C102.482 10.8107 102.018 11.3013 101.432 11.664C100.845 12.016 100.178 12.192 99.4315 12.192C98.8342 12.192 98.3115 12.08 97.8635 11.856C97.4155 11.632 97.0528 11.3173 96.7755 10.912V15.52H94.7275ZM98.9995 10.4C99.6502 10.4 100.189 10.1813 100.616 9.744C101.042 9.30667 101.256 8.74133 101.256 8.048C101.256 7.35467 101.042 6.784 100.616 6.336C100.189 5.888 99.6502 5.664 98.9995 5.664C98.3382 5.664 97.7942 5.888 97.3675 6.336C96.9515 6.77333 96.7435 7.33867 96.7435 8.032C96.7435 8.72533 96.9515 9.296 97.3675 9.744C97.7942 10.1813 98.3382 10.4 98.9995 10.4ZM107.901 12.192C107.218 12.192 106.658 12.0853 106.221 11.872C105.784 11.648 105.458 11.3547 105.245 10.992C105.032 10.6293 104.925 10.2293 104.925 9.792C104.925 9.056 105.213 8.45867 105.789 8C106.365 7.54133 107.229 7.312 108.381 7.312H110.397V7.12C110.397 6.576 110.242 6.176 109.933 5.92C109.624 5.664 109.24 5.536 108.781 5.536C108.365 5.536 108.002 5.63733 107.693 5.84C107.384 6.032 107.192 6.32 107.117 6.704H105.117C105.17 6.128 105.362 5.62667 105.693 5.2C106.034 4.77333 106.472 4.448 107.005 4.224C107.538 3.98933 108.136 3.872 108.797 3.872C109.928 3.872 110.818 4.15467 111.469 4.72C112.12 5.28533 112.445 6.08533 112.445 7.12V12H110.701L110.509 10.72C110.274 11.1467 109.944 11.4987 109.517 11.776C109.101 12.0533 108.562 12.192 107.901 12.192ZM108.365 10.592C108.952 10.592 109.405 10.4 109.725 10.016C110.056 9.632 110.264 9.15733 110.349 8.592H108.605C108.061 8.592 107.672 8.69333 107.437 8.896C107.202 9.088 107.085 9.328 107.085 9.616C107.085 9.92533 107.202 10.1653 107.437 10.336C107.672 10.5067 107.981 10.592 108.365 10.592ZM117.826 12C116.994 12 116.327 11.7973 115.826 11.392C115.325 10.9867 115.074 10.2667 115.074 9.232V5.776H113.714V4.064H115.074L115.314 1.936H117.122V4.064H119.266V5.776H117.122V9.248C117.122 9.632 117.202 9.89867 117.362 10.048C117.533 10.1867 117.821 10.256 118.226 10.256H119.218V12H117.826Z" fill="black"/>
</svg>
