<svg width="112" height="13" viewBox="0 0 112 13" fill="none" xmlns="http://www.w3.org/2000/svg">
<path d="M0.0880001 12V0.799999H4.232C5.128 0.799999 5.86933 0.949333 6.456 1.248C7.04267 1.54667 7.48 1.95733 7.768 2.48C8.056 3.00267 8.2 3.58933 8.2 4.24C8.2 4.85867 8.06133 5.42933 7.784 5.952C7.50667 6.464 7.07467 6.88 6.488 7.2C5.90133 7.50933 5.14933 7.664 4.232 7.664H2.136V12H0.0880001ZM2.136 6H4.104C4.81867 6 5.33067 5.84533 5.64 5.536C5.96 5.216 6.12 4.784 6.12 4.24C6.12 3.68533 5.96 3.25333 5.64 2.944C5.33067 2.624 4.81867 2.464 4.104 2.464H2.136V6ZM11.9948 12.192C11.3121 12.192 10.7521 12.0853 10.3148 11.872C9.87742 11.648 9.55208 11.3547 9.33875 10.992C9.12542 10.6293 9.01875 10.2293 9.01875 9.792C9.01875 9.056 9.30675 8.45867 9.88275 8C10.4588 7.54133 11.3228 7.312 12.4748 7.312H14.4908V7.12C14.4908 6.576 14.3361 6.176 14.0268 5.92C13.7174 5.664 13.3334 5.536 12.8748 5.536C12.4588 5.536 12.0961 5.63733 11.7868 5.84C11.4774 6.032 11.2854 6.32 11.2108 6.704H9.21075C9.26408 6.128 9.45608 5.62667 9.78675 5.2C10.1281 4.77333 10.5654 4.448 11.0988 4.224C11.6321 3.98933 12.2294 3.872 12.8908 3.872C14.0214 3.872 14.9121 4.15467 15.5628 4.72C16.2134 5.28533 16.5388 6.08533 16.5388 7.12V12H14.7948L14.6028 10.72C14.3681 11.1467 14.0374 11.4987 13.6108 11.776C13.1948 12.0533 12.6561 12.192 11.9948 12.192ZM12.4588 10.592C13.0454 10.592 13.4988 10.4 13.8188 10.016C14.1494 9.632 14.3574 9.15733 14.4428 8.592H12.6988C12.1548 8.592 11.7654 8.69333 11.5308 8.896C11.2961 9.088 11.1788 9.328 11.1788 9.616C11.1788 9.92533 11.2961 10.1653 11.5308 10.336C11.7654 10.5067 12.0748 10.592 12.4588 10.592ZM18.4931 12V4.064H20.3171L20.5091 5.552C20.7971 5.04 21.1865 4.63467 21.6771 4.336C22.1785 4.02667 22.7651 3.872 23.4371 3.872V6.032H22.8611C22.4131 6.032 22.0131 6.10133 21.6611 6.24C21.3091 6.37867 21.0318 6.61867 20.8291 6.96C20.6371 7.30133 20.5411 7.776 20.5411 8.384V12H18.4931ZM28.3729 12C27.5409 12 26.8742 11.7973 26.3729 11.392C25.8715 10.9867 25.6209 10.2667 25.6209 9.232V5.776H24.2609V4.064H25.6209L25.8609 1.936H27.6689V4.064H29.8129V5.776H27.6689V9.248C27.6689 9.632 27.7489 9.89867 27.9089 10.048C28.0795 10.1867 28.3675 10.256 28.7729 10.256H29.7649V12H28.3729ZM35.2241 12.192C34.4241 12.192 33.7148 12.0213 33.0961 11.68C32.4775 11.3387 31.9921 10.8587 31.6401 10.24C31.2881 9.62133 31.1121 8.90667 31.1121 8.096C31.1121 7.27467 31.2828 6.544 31.6241 5.904C31.9761 5.264 32.4561 4.768 33.0641 4.416C33.6828 4.05333 34.4081 3.872 35.2401 3.872C36.0188 3.872 36.7068 4.04267 37.3041 4.384C37.9015 4.72533 38.3655 5.19467 38.6961 5.792C39.0375 6.37867 39.2081 7.03467 39.2081 7.76C39.2081 7.87733 39.2028 8 39.1921 8.128C39.1921 8.256 39.1868 8.38933 39.1761 8.528H33.1441C33.1868 9.14667 33.4001 9.632 33.7841 9.984C34.1788 10.336 34.6535 10.512 35.2081 10.512C35.6241 10.512 35.9708 10.4213 36.2481 10.24C36.5361 10.048 36.7495 9.80267 36.8881 9.504H38.9681C38.8188 10.0053 38.5681 10.464 38.2161 10.88C37.8748 11.2853 37.4481 11.6053 36.9361 11.84C36.4348 12.0747 35.8641 12.192 35.2241 12.192ZM35.2401 5.536C34.7388 5.536 34.2961 5.68 33.9121 5.968C33.5281 6.24533 33.2828 6.672 33.1761 7.248H37.1281C37.0961 6.72533 36.9041 6.30933 36.5521 6C36.2001 5.69067 35.7628 5.536 35.2401 5.536ZM40.9306 12V4.064H42.7386L42.9146 5.136C43.1706 4.752 43.5066 4.448 43.9226 4.224C44.3493 3.98933 44.84 3.872 45.3946 3.872C46.6213 3.872 47.4906 4.34667 48.0026 5.296C48.2906 4.85867 48.6746 4.512 49.1546 4.256C49.6453 4 50.1786 3.872 50.7546 3.872C51.7893 3.872 52.584 4.18133 53.1386 4.8C53.6933 5.41867 53.9706 6.32533 53.9706 7.52V12H51.9226V7.712C51.9226 7.02933 51.7893 6.50667 51.5226 6.144C51.2666 5.78133 50.8666 5.6 50.3226 5.6C49.768 5.6 49.32 5.80267 48.9786 6.208C48.648 6.61333 48.4826 7.17867 48.4826 7.904V12H46.4346V7.712C46.4346 7.02933 46.3013 6.50667 46.0346 6.144C45.768 5.78133 45.3573 5.6 44.8026 5.6C44.2586 5.6 43.816 5.80267 43.4746 6.208C43.144 6.61333 42.9786 7.17867 42.9786 7.904V12H40.9306ZM61.8715 12L58.9595 4.064H61.1035L63.1195 10.064L65.1355 4.064H67.2795L64.3515 12H61.8715ZM71.9886 12.192C71.2206 12.192 70.5273 12.016 69.9086 11.664C69.3006 11.312 68.8153 10.8267 68.4526 10.208C68.1006 9.57867 67.9246 8.85333 67.9246 8.032C67.9246 7.21067 68.106 6.49067 68.4686 5.872C68.8313 5.24267 69.3166 4.752 69.9246 4.4C70.5433 4.048 71.2366 3.872 72.0046 3.872C72.762 3.872 73.4446 4.048 74.0526 4.4C74.6713 4.752 75.1566 5.24267 75.5086 5.872C75.8713 6.49067 76.0526 7.21067 76.0526 8.032C76.0526 8.85333 75.8713 9.57867 75.5086 10.208C75.1566 10.8267 74.6713 11.312 74.0526 11.664C73.434 12.016 72.746 12.192 71.9886 12.192ZM71.9886 10.416C72.522 10.416 72.986 10.2187 73.3806 9.824C73.7753 9.41867 73.9726 8.82133 73.9726 8.032C73.9726 7.24267 73.7753 6.65067 73.3806 6.256C72.986 5.85067 72.5273 5.648 72.0046 5.648C71.4606 5.648 70.9913 5.85067 70.5966 6.256C70.2126 6.65067 70.0206 7.24267 70.0206 8.032C70.0206 8.82133 70.2126 9.41867 70.5966 9.824C70.9913 10.2187 71.4553 10.416 71.9886 10.416ZM81.7718 12.192C80.9611 12.192 80.2464 12.016 79.6278 11.664C79.0091 11.312 78.5184 10.8213 78.1558 10.192C77.8038 9.56267 77.6278 8.84267 77.6278 8.032C77.6278 7.22133 77.8038 6.50133 78.1558 5.872C78.5184 5.24267 79.0091 4.752 79.6278 4.4C80.2464 4.048 80.9611 3.872 81.7718 3.872C82.7851 3.872 83.6384 4.13867 84.3318 4.672C85.0251 5.19467 85.4678 5.92 85.6597 6.848H83.4998C83.3931 6.464 83.1798 6.16533 82.8598 5.952C82.5504 5.728 82.1824 5.616 81.7558 5.616C81.1904 5.616 80.7104 5.82933 80.3158 6.256C79.9211 6.68267 79.7238 7.27467 79.7238 8.032C79.7238 8.78933 79.9211 9.38133 80.3158 9.808C80.7104 10.2347 81.1904 10.448 81.7558 10.448C82.1824 10.448 82.5504 10.3413 82.8598 10.128C83.1798 9.91467 83.3931 9.61067 83.4998 9.216H85.6597C85.4678 10.112 85.0251 10.832 84.3318 11.376C83.6384 11.92 82.7851 12.192 81.7718 12.192ZM91.3335 12.192C90.5335 12.192 89.8242 12.0213 89.2055 11.68C88.5868 11.3387 88.1015 10.8587 87.7495 10.24C87.3975 9.62133 87.2215 8.90667 87.2215 8.096C87.2215 7.27467 87.3922 6.544 87.7335 5.904C88.0855 5.264 88.5655 4.768 89.1735 4.416C89.7922 4.05333 90.5175 3.872 91.3495 3.872C92.1282 3.872 92.8162 4.04267 93.4135 4.384C94.0108 4.72533 94.4748 5.19467 94.8055 5.792C95.1468 6.37867 95.3175 7.03467 95.3175 7.76C95.3175 7.87733 95.3122 8 95.3015 8.128C95.3015 8.256 95.2962 8.38933 95.2855 8.528H89.2535C89.2962 9.14667 89.5095 9.632 89.8935 9.984C90.2882 10.336 90.7628 10.512 91.3175 10.512C91.7335 10.512 92.0802 10.4213 92.3575 10.24C92.6455 10.048 92.8588 9.80267 92.9975 9.504H95.0775C94.9282 10.0053 94.6775 10.464 94.3255 10.88C93.9842 11.2853 93.5575 11.6053 93.0455 11.84C92.5442 12.0747 91.9735 12.192 91.3335 12.192ZM91.3495 5.536C90.8482 5.536 90.4055 5.68 90.0215 5.968C89.6375 6.24533 89.3922 6.672 89.2855 7.248H93.2375C93.2055 6.72533 93.0135 6.30933 92.6615 6C92.3095 5.69067 91.8722 5.536 91.3495 5.536ZM97.04 12V4.064H98.848L99.008 5.408C99.2533 4.93867 99.6053 4.56533 100.064 4.288C100.533 4.01067 101.083 3.872 101.712 3.872C102.693 3.872 103.456 4.18133 104 4.8C104.544 5.41867 104.816 6.32533 104.816 7.52V12H102.768V7.712C102.768 7.02933 102.629 6.50667 102.352 6.144C102.075 5.78133 101.643 5.6 101.056 5.6C100.48 5.6 100.005 5.80267 99.632 6.208C99.2693 6.61333 99.088 7.17867 99.088 7.904V12H97.04ZM110.31 12C109.478 12 108.812 11.7973 108.31 11.392C107.809 10.9867 107.558 10.2667 107.558 9.232V5.776H106.198V4.064H107.558L107.798 1.936H109.606V4.064H111.75V5.776H109.606V9.248C109.606 9.632 109.686 9.89867 109.846 10.048C110.017 10.1867 110.305 10.256 110.71 10.256H111.702V12H110.31Z" fill="black"/>
</svg>
